<mxfile host="app.diagrams.net" agent="Mozilla/5.0 (Windows NT 10.0; Win64; x64) AppleWebKit/537.36 (KHTML, like Gecko) Chrome/140.0.0.0 Safari/537.36 Edg/140.0.0.0" version="28.2.5">
  <diagram id="C5RBs43oDa-KdzZeNtuy" name="Page-1">
    <mxGraphModel dx="1091" dy="452" grid="1" gridSize="10" guides="1" tooltips="1" connect="1" arrows="1" fold="1" page="1" pageScale="1" pageWidth="827" pageHeight="1169" math="0" shadow="0">
      <root>
        <mxCell id="WIyWlLk6GJQsqaUBKTNV-0" />
        <mxCell id="WIyWlLk6GJQsqaUBKTNV-1" parent="WIyWlLk6GJQsqaUBKTNV-0" />
        <mxCell id="WIyWlLk6GJQsqaUBKTNV-3" value="User chọn loại video" style="rounded=1;whiteSpace=wrap;html=1;fontSize=12;glass=0;strokeWidth=1;shadow=0;" parent="WIyWlLk6GJQsqaUBKTNV-1" vertex="1">
          <mxGeometry x="160" y="80" width="120" height="40" as="geometry" />
        </mxCell>
        <mxCell id="diwaLmmGGXgiSM8Ft7Uw-0" value="" style="rounded=0;html=1;jettySize=auto;orthogonalLoop=1;fontSize=11;endArrow=block;endFill=0;endSize=8;strokeWidth=1;shadow=0;labelBackgroundColor=none;edgeStyle=orthogonalEdgeStyle;entryX=0.5;entryY=0;entryDx=0;entryDy=0;exitX=0.75;exitY=1;exitDx=0;exitDy=0;" parent="WIyWlLk6GJQsqaUBKTNV-1" source="WIyWlLk6GJQsqaUBKTNV-3" target="diwaLmmGGXgiSM8Ft7Uw-5" edge="1">
          <mxGeometry relative="1" as="geometry">
            <mxPoint x="269" y="120" as="sourcePoint" />
            <mxPoint x="270" y="190" as="targetPoint" />
            <Array as="points">
              <mxPoint x="260" y="120" />
              <mxPoint x="260" y="170" />
              <mxPoint x="345" y="170" />
            </Array>
          </mxGeometry>
        </mxCell>
        <mxCell id="diwaLmmGGXgiSM8Ft7Uw-4" value="Video có tiếng" style="rounded=1;whiteSpace=wrap;html=1;fontSize=12;glass=0;strokeWidth=1;shadow=0;" parent="WIyWlLk6GJQsqaUBKTNV-1" vertex="1">
          <mxGeometry x="30" y="200" width="120" height="40" as="geometry" />
        </mxCell>
        <mxCell id="diwaLmmGGXgiSM8Ft7Uw-5" value="Video không tiếng" style="rounded=1;whiteSpace=wrap;html=1;fontSize=12;glass=0;strokeWidth=1;shadow=0;" parent="WIyWlLk6GJQsqaUBKTNV-1" vertex="1">
          <mxGeometry x="285" y="200" width="120" height="40" as="geometry" />
        </mxCell>
        <mxCell id="diwaLmmGGXgiSM8Ft7Uw-6" value="" style="rounded=0;html=1;jettySize=auto;orthogonalLoop=1;fontSize=11;endArrow=block;endFill=0;endSize=8;strokeWidth=1;shadow=0;labelBackgroundColor=none;edgeStyle=orthogonalEdgeStyle;entryX=0.5;entryY=0;entryDx=0;entryDy=0;" parent="WIyWlLk6GJQsqaUBKTNV-1" target="diwaLmmGGXgiSM8Ft7Uw-4" edge="1">
          <mxGeometry relative="1" as="geometry">
            <mxPoint x="180" y="120" as="sourcePoint" />
            <mxPoint x="181" y="190" as="targetPoint" />
            <Array as="points">
              <mxPoint x="181" y="120" />
              <mxPoint x="181" y="170" />
              <mxPoint x="90" y="170" />
            </Array>
          </mxGeometry>
        </mxCell>
        <mxCell id="diwaLmmGGXgiSM8Ft7Uw-7" value="" style="rounded=0;html=1;jettySize=auto;orthogonalLoop=1;fontSize=11;endArrow=block;endFill=0;endSize=8;strokeWidth=1;shadow=0;labelBackgroundColor=none;edgeStyle=orthogonalEdgeStyle;entryX=1;entryY=0.5;entryDx=0;entryDy=0;" parent="WIyWlLk6GJQsqaUBKTNV-1" target="diwaLmmGGXgiSM8Ft7Uw-8" edge="1">
          <mxGeometry relative="1" as="geometry">
            <mxPoint x="350" y="240" as="sourcePoint" />
            <mxPoint x="330" y="300" as="targetPoint" />
            <Array as="points">
              <mxPoint x="350" y="240" />
              <mxPoint x="350" y="350" />
            </Array>
          </mxGeometry>
        </mxCell>
        <mxCell id="diwaLmmGGXgiSM8Ft7Uw-8" value="Up video" style="rounded=1;whiteSpace=wrap;html=1;fontSize=12;glass=0;strokeWidth=1;shadow=0;" parent="WIyWlLk6GJQsqaUBKTNV-1" vertex="1">
          <mxGeometry x="160" y="320" width="120" height="40" as="geometry" />
        </mxCell>
        <mxCell id="diwaLmmGGXgiSM8Ft7Uw-9" value="" style="rounded=0;html=1;jettySize=auto;orthogonalLoop=1;fontSize=11;endArrow=block;endFill=0;endSize=8;strokeWidth=1;shadow=0;labelBackgroundColor=none;edgeStyle=orthogonalEdgeStyle;entryX=0;entryY=0.5;entryDx=0;entryDy=0;" parent="WIyWlLk6GJQsqaUBKTNV-1" target="diwaLmmGGXgiSM8Ft7Uw-8" edge="1">
          <mxGeometry relative="1" as="geometry">
            <mxPoint x="90" y="240" as="sourcePoint" />
            <mxPoint x="140" y="340" as="targetPoint" />
            <Array as="points">
              <mxPoint x="92" y="240" />
              <mxPoint x="92" y="340" />
            </Array>
          </mxGeometry>
        </mxCell>
        <mxCell id="diwaLmmGGXgiSM8Ft7Uw-10" value="Up lên S3, lúc này user ko cần phải chờ có thể chạy song song" style="rounded=1;whiteSpace=wrap;html=1;fontSize=12;glass=0;strokeWidth=1;shadow=0;" parent="WIyWlLk6GJQsqaUBKTNV-1" vertex="1">
          <mxGeometry x="40" y="412" width="130" height="70" as="geometry" />
        </mxCell>
        <mxCell id="diwaLmmGGXgiSM8Ft7Uw-11" value="User nhập prompt" style="rounded=1;whiteSpace=wrap;html=1;fontSize=12;glass=0;strokeWidth=1;shadow=0;" parent="WIyWlLk6GJQsqaUBKTNV-1" vertex="1">
          <mxGeometry x="260" y="412" width="130" height="70" as="geometry" />
        </mxCell>
        <mxCell id="diwaLmmGGXgiSM8Ft7Uw-12" value="" style="rounded=0;html=1;jettySize=auto;orthogonalLoop=1;fontSize=11;endArrow=block;endFill=0;endSize=8;strokeWidth=1;shadow=0;labelBackgroundColor=none;edgeStyle=orthogonalEdgeStyle;entryX=0.5;entryY=0;entryDx=0;entryDy=0;" parent="WIyWlLk6GJQsqaUBKTNV-1" target="diwaLmmGGXgiSM8Ft7Uw-10" edge="1">
          <mxGeometry relative="1" as="geometry">
            <mxPoint x="200" y="372" as="sourcePoint" />
            <mxPoint x="280" y="472" as="targetPoint" />
            <Array as="points">
              <mxPoint x="200" y="362" />
              <mxPoint x="200" y="372" />
              <mxPoint x="105" y="372" />
            </Array>
          </mxGeometry>
        </mxCell>
        <mxCell id="diwaLmmGGXgiSM8Ft7Uw-13" value="" style="rounded=0;html=1;jettySize=auto;orthogonalLoop=1;fontSize=11;endArrow=block;endFill=0;endSize=8;strokeWidth=1;shadow=0;labelBackgroundColor=none;edgeStyle=orthogonalEdgeStyle;entryX=0.5;entryY=0;entryDx=0;entryDy=0;exitX=0.664;exitY=1.078;exitDx=0;exitDy=0;exitPerimeter=0;" parent="WIyWlLk6GJQsqaUBKTNV-1" source="diwaLmmGGXgiSM8Ft7Uw-8" target="diwaLmmGGXgiSM8Ft7Uw-11" edge="1">
          <mxGeometry relative="1" as="geometry">
            <mxPoint x="240" y="390" as="sourcePoint" />
            <mxPoint x="200" y="442" as="targetPoint" />
            <Array as="points">
              <mxPoint x="240" y="372" />
              <mxPoint x="325" y="372" />
            </Array>
          </mxGeometry>
        </mxCell>
        <mxCell id="diwaLmmGGXgiSM8Ft7Uw-14" value="S3 xử lí, gọi API để cập nhập Video_id vào DB, cùng với User_id" style="rounded=1;whiteSpace=wrap;html=1;fontSize=12;glass=0;strokeWidth=1;shadow=0;" parent="WIyWlLk6GJQsqaUBKTNV-1" vertex="1">
          <mxGeometry x="40" y="532" width="130" height="70" as="geometry" />
        </mxCell>
        <mxCell id="diwaLmmGGXgiSM8Ft7Uw-15" value="" style="rounded=0;html=1;jettySize=auto;orthogonalLoop=1;fontSize=11;endArrow=block;endFill=0;endSize=8;strokeWidth=1;shadow=0;labelBackgroundColor=none;edgeStyle=orthogonalEdgeStyle;entryX=0.5;entryY=0;entryDx=0;entryDy=0;exitX=0.5;exitY=1;exitDx=0;exitDy=0;" parent="WIyWlLk6GJQsqaUBKTNV-1" source="diwaLmmGGXgiSM8Ft7Uw-10" target="diwaLmmGGXgiSM8Ft7Uw-14" edge="1">
          <mxGeometry relative="1" as="geometry">
            <mxPoint x="194.5" y="492" as="sourcePoint" />
            <mxPoint x="80" y="542" as="targetPoint" />
            <Array as="points">
              <mxPoint x="105" y="522" />
              <mxPoint x="105" y="522" />
            </Array>
          </mxGeometry>
        </mxCell>
        <mxCell id="diwaLmmGGXgiSM8Ft7Uw-16" value="Gọi API xử lí AI =&amp;gt; lấy video_id từ DB =&amp;gt;&amp;nbsp;" style="rounded=1;whiteSpace=wrap;html=1;fontSize=12;glass=0;strokeWidth=1;shadow=0;" parent="WIyWlLk6GJQsqaUBKTNV-1" vertex="1">
          <mxGeometry x="264" y="532" width="130" height="70" as="geometry" />
        </mxCell>
        <mxCell id="diwaLmmGGXgiSM8Ft7Uw-17" value="" style="rounded=0;html=1;jettySize=auto;orthogonalLoop=1;fontSize=11;endArrow=block;endFill=0;endSize=8;strokeWidth=1;shadow=0;labelBackgroundColor=none;edgeStyle=orthogonalEdgeStyle;entryX=0.5;entryY=0;entryDx=0;entryDy=0;exitX=0.5;exitY=1;exitDx=0;exitDy=0;" parent="WIyWlLk6GJQsqaUBKTNV-1" target="diwaLmmGGXgiSM8Ft7Uw-16" edge="1">
          <mxGeometry relative="1" as="geometry">
            <mxPoint x="329" y="482" as="sourcePoint" />
            <mxPoint x="304" y="542" as="targetPoint" />
            <Array as="points">
              <mxPoint x="329" y="522" />
              <mxPoint x="329" y="522" />
            </Array>
          </mxGeometry>
        </mxCell>
        <mxCell id="diwaLmmGGXgiSM8Ft7Uw-18" value="API xử lí AI" style="rounded=1;whiteSpace=wrap;html=1;fontSize=12;glass=0;strokeWidth=1;shadow=0;" parent="WIyWlLk6GJQsqaUBKTNV-1" vertex="1">
          <mxGeometry x="481" y="84" width="130" height="70" as="geometry" />
        </mxCell>
        <mxCell id="diwaLmmGGXgiSM8Ft7Uw-19" value="Go gọi lấy video_id ở DB" style="rounded=1;whiteSpace=wrap;html=1;fontSize=12;glass=0;strokeWidth=1;shadow=0;" parent="WIyWlLk6GJQsqaUBKTNV-1" vertex="1">
          <mxGeometry x="481" y="204" width="130" height="50" as="geometry" />
        </mxCell>
        <mxCell id="diwaLmmGGXgiSM8Ft7Uw-20" value="" style="rounded=0;html=1;jettySize=auto;orthogonalLoop=1;fontSize=11;endArrow=block;endFill=0;endSize=8;strokeWidth=1;shadow=0;labelBackgroundColor=none;edgeStyle=orthogonalEdgeStyle;entryX=0.5;entryY=0;entryDx=0;entryDy=0;exitX=0.5;exitY=1;exitDx=0;exitDy=0;" parent="WIyWlLk6GJQsqaUBKTNV-1" target="diwaLmmGGXgiSM8Ft7Uw-19" edge="1">
          <mxGeometry relative="1" as="geometry">
            <mxPoint x="546" y="154" as="sourcePoint" />
            <mxPoint x="521" y="214" as="targetPoint" />
            <Array as="points">
              <mxPoint x="546" y="194" />
              <mxPoint x="546" y="194" />
            </Array>
          </mxGeometry>
        </mxCell>
        <mxCell id="diwaLmmGGXgiSM8Ft7Uw-36" value="" style="edgeStyle=orthogonalEdgeStyle;rounded=0;orthogonalLoop=1;jettySize=auto;html=1;" parent="WIyWlLk6GJQsqaUBKTNV-1" source="diwaLmmGGXgiSM8Ft7Uw-22" target="diwaLmmGGXgiSM8Ft7Uw-35" edge="1">
          <mxGeometry relative="1" as="geometry" />
        </mxCell>
        <mxCell id="diwaLmmGGXgiSM8Ft7Uw-22" value="Gọi API xử lí AI&amp;nbsp;&amp;nbsp;" style="rounded=1;whiteSpace=wrap;html=1;fontSize=12;glass=0;strokeWidth=1;shadow=0;" parent="WIyWlLk6GJQsqaUBKTNV-1" vertex="1">
          <mxGeometry x="264" y="532" width="130" height="70" as="geometry" />
        </mxCell>
        <mxCell id="diwaLmmGGXgiSM8Ft7Uw-23" value="" style="rounded=0;html=1;jettySize=auto;orthogonalLoop=1;fontSize=11;endArrow=block;endFill=0;endSize=8;strokeWidth=1;shadow=0;labelBackgroundColor=none;edgeStyle=orthogonalEdgeStyle;entryX=0.5;entryY=0;entryDx=0;entryDy=0;exitX=0.5;exitY=1;exitDx=0;exitDy=0;" parent="WIyWlLk6GJQsqaUBKTNV-1" target="diwaLmmGGXgiSM8Ft7Uw-22" edge="1">
          <mxGeometry relative="1" as="geometry">
            <mxPoint x="329" y="482" as="sourcePoint" />
            <mxPoint x="304" y="542" as="targetPoint" />
            <Array as="points">
              <mxPoint x="329" y="522" />
              <mxPoint x="329" y="522" />
            </Array>
          </mxGeometry>
        </mxCell>
        <mxCell id="diwaLmmGGXgiSM8Ft7Uw-24" value="Gọi API xử lí AI =&amp;gt; lấy video_id từ DB =&amp;gt;&amp;nbsp;" style="rounded=1;whiteSpace=wrap;html=1;fontSize=12;glass=0;strokeWidth=1;shadow=0;" parent="WIyWlLk6GJQsqaUBKTNV-1" vertex="1">
          <mxGeometry x="481" y="304" width="130" height="70" as="geometry" />
        </mxCell>
        <mxCell id="diwaLmmGGXgiSM8Ft7Uw-25" value="" style="rounded=0;html=1;jettySize=auto;orthogonalLoop=1;fontSize=11;endArrow=block;endFill=0;endSize=8;strokeWidth=1;shadow=0;labelBackgroundColor=none;edgeStyle=orthogonalEdgeStyle;entryX=0.5;entryY=0;entryDx=0;entryDy=0;exitX=0.5;exitY=1;exitDx=0;exitDy=0;" parent="WIyWlLk6GJQsqaUBKTNV-1" target="diwaLmmGGXgiSM8Ft7Uw-24" edge="1">
          <mxGeometry relative="1" as="geometry">
            <mxPoint x="546" y="254" as="sourcePoint" />
            <mxPoint x="521" y="314" as="targetPoint" />
            <Array as="points">
              <mxPoint x="546" y="294" />
              <mxPoint x="546" y="294" />
            </Array>
          </mxGeometry>
        </mxCell>
        <mxCell id="diwaLmmGGXgiSM8Ft7Uw-54" value="" style="edgeStyle=orthogonalEdgeStyle;rounded=0;orthogonalLoop=1;jettySize=auto;html=1;" parent="WIyWlLk6GJQsqaUBKTNV-1" source="diwaLmmGGXgiSM8Ft7Uw-26" target="diwaLmmGGXgiSM8Ft7Uw-53" edge="1">
          <mxGeometry relative="1" as="geometry" />
        </mxCell>
        <mxCell id="diwaLmmGGXgiSM8Ft7Uw-26" value="Gọi AP thực hiện xử lí cắt video từ máy chủ Modal" style="rounded=1;whiteSpace=wrap;html=1;fontSize=12;glass=0;strokeWidth=1;shadow=0;" parent="WIyWlLk6GJQsqaUBKTNV-1" vertex="1">
          <mxGeometry x="480" y="304" width="130" height="70" as="geometry" />
        </mxCell>
        <mxCell id="diwaLmmGGXgiSM8Ft7Uw-27" value="" style="rounded=0;html=1;jettySize=auto;orthogonalLoop=1;fontSize=11;endArrow=block;endFill=0;endSize=8;strokeWidth=1;shadow=0;labelBackgroundColor=none;edgeStyle=orthogonalEdgeStyle;entryX=0.5;entryY=0;entryDx=0;entryDy=0;exitX=0.5;exitY=1;exitDx=0;exitDy=0;" parent="WIyWlLk6GJQsqaUBKTNV-1" target="diwaLmmGGXgiSM8Ft7Uw-26" edge="1">
          <mxGeometry relative="1" as="geometry">
            <mxPoint x="546" y="254" as="sourcePoint" />
            <mxPoint x="521" y="314" as="targetPoint" />
            <Array as="points">
              <mxPoint x="546" y="294" />
              <mxPoint x="546" y="294" />
            </Array>
          </mxGeometry>
        </mxCell>
        <mxCell id="diwaLmmGGXgiSM8Ft7Uw-38" value="" style="edgeStyle=orthogonalEdgeStyle;rounded=0;orthogonalLoop=1;jettySize=auto;html=1;exitX=0.358;exitY=1.006;exitDx=0;exitDy=0;exitPerimeter=0;" parent="WIyWlLk6GJQsqaUBKTNV-1" source="diwaLmmGGXgiSM8Ft7Uw-35" target="diwaLmmGGXgiSM8Ft7Uw-37" edge="1">
          <mxGeometry relative="1" as="geometry" />
        </mxCell>
        <mxCell id="diwaLmmGGXgiSM8Ft7Uw-35" value="Cho người dùng xem các video mẫu" style="whiteSpace=wrap;html=1;rounded=1;glass=0;strokeWidth=1;shadow=0;" parent="WIyWlLk6GJQsqaUBKTNV-1" vertex="1">
          <mxGeometry x="269" y="642" width="120" height="60" as="geometry" />
        </mxCell>
        <mxCell id="diwaLmmGGXgiSM8Ft7Uw-37" value="Cho tải các video" style="whiteSpace=wrap;html=1;rounded=1;glass=0;strokeWidth=1;shadow=0;" parent="WIyWlLk6GJQsqaUBKTNV-1" vertex="1">
          <mxGeometry x="170" y="747" width="120" height="60" as="geometry" />
        </mxCell>
        <mxCell id="diwaLmmGGXgiSM8Ft7Uw-41" value="Cho lưu video" style="whiteSpace=wrap;html=1;rounded=1;glass=0;strokeWidth=1;shadow=0;" parent="WIyWlLk6GJQsqaUBKTNV-1" vertex="1">
          <mxGeometry x="360" y="747" width="120" height="60" as="geometry" />
        </mxCell>
        <mxCell id="diwaLmmGGXgiSM8Ft7Uw-42" value="" style="edgeStyle=orthogonalEdgeStyle;rounded=0;orthogonalLoop=1;jettySize=auto;html=1;entryX=0.5;entryY=0;entryDx=0;entryDy=0;exitX=0.619;exitY=1.011;exitDx=0;exitDy=0;exitPerimeter=0;" parent="WIyWlLk6GJQsqaUBKTNV-1" source="diwaLmmGGXgiSM8Ft7Uw-35" target="diwaLmmGGXgiSM8Ft7Uw-41" edge="1">
          <mxGeometry relative="1" as="geometry">
            <mxPoint x="469" y="717" as="sourcePoint" />
            <mxPoint x="370" y="762" as="targetPoint" />
          </mxGeometry>
        </mxCell>
        <mxCell id="diwaLmmGGXgiSM8Ft7Uw-46" value="" style="edgeStyle=orthogonalEdgeStyle;rounded=0;orthogonalLoop=1;jettySize=auto;html=1;" parent="WIyWlLk6GJQsqaUBKTNV-1" source="diwaLmmGGXgiSM8Ft7Uw-44" target="diwaLmmGGXgiSM8Ft7Uw-45" edge="1">
          <mxGeometry relative="1" as="geometry" />
        </mxCell>
        <mxCell id="diwaLmmGGXgiSM8Ft7Uw-44" value="Xử lí cắt video từ máy chủ Modal" style="rounded=1;whiteSpace=wrap;html=1;fontSize=12;glass=0;strokeWidth=1;shadow=0;" parent="WIyWlLk6GJQsqaUBKTNV-1" vertex="1">
          <mxGeometry x="670" y="84" width="130" height="70" as="geometry" />
        </mxCell>
        <mxCell id="diwaLmmGGXgiSM8Ft7Uw-48" value="" style="edgeStyle=orthogonalEdgeStyle;rounded=0;orthogonalLoop=1;jettySize=auto;html=1;" parent="WIyWlLk6GJQsqaUBKTNV-1" source="diwaLmmGGXgiSM8Ft7Uw-45" target="diwaLmmGGXgiSM8Ft7Uw-47" edge="1">
          <mxGeometry relative="1" as="geometry" />
        </mxCell>
        <mxCell id="diwaLmmGGXgiSM8Ft7Uw-45" value="Modal chạy một model AI xử lí trích xuất caption + frame từng từ được nói từ video" style="whiteSpace=wrap;html=1;rounded=1;glass=0;strokeWidth=1;shadow=0;" parent="WIyWlLk6GJQsqaUBKTNV-1" vertex="1">
          <mxGeometry x="672.5" y="200" width="125" height="60" as="geometry" />
        </mxCell>
        <mxCell id="diwaLmmGGXgiSM8Ft7Uw-50" value="" style="edgeStyle=orthogonalEdgeStyle;rounded=0;orthogonalLoop=1;jettySize=auto;html=1;" parent="WIyWlLk6GJQsqaUBKTNV-1" source="diwaLmmGGXgiSM8Ft7Uw-47" target="diwaLmmGGXgiSM8Ft7Uw-49" edge="1">
          <mxGeometry relative="1" as="geometry" />
        </mxCell>
        <mxCell id="diwaLmmGGXgiSM8Ft7Uw-47" value="Dùng Gemini để thực hiện tìm đoạn cần tìm của user từ caption và frame&amp;nbsp;" style="whiteSpace=wrap;html=1;rounded=1;glass=0;strokeWidth=1;shadow=0;" parent="WIyWlLk6GJQsqaUBKTNV-1" vertex="1">
          <mxGeometry x="675" y="309" width="120" height="60" as="geometry" />
        </mxCell>
        <mxCell id="diwaLmmGGXgiSM8Ft7Uw-52" value="" style="edgeStyle=orthogonalEdgeStyle;rounded=0;orthogonalLoop=1;jettySize=auto;html=1;" parent="WIyWlLk6GJQsqaUBKTNV-1" source="diwaLmmGGXgiSM8Ft7Uw-49" target="diwaLmmGGXgiSM8Ft7Uw-51" edge="1">
          <mxGeometry relative="1" as="geometry" />
        </mxCell>
        <mxCell id="diwaLmmGGXgiSM8Ft7Uw-49" value="Sử dụng một model để tìm mặt của người đang nói&amp;nbsp;" style="whiteSpace=wrap;html=1;rounded=1;glass=0;strokeWidth=1;shadow=0;" parent="WIyWlLk6GJQsqaUBKTNV-1" vertex="1">
          <mxGeometry x="677.5" y="424" width="115" height="68" as="geometry" />
        </mxCell>
        <mxCell id="diwaLmmGGXgiSM8Ft7Uw-51" value="Cắt video gồm mặt và caption ra thành các video ngắn" style="whiteSpace=wrap;html=1;rounded=1;glass=0;strokeWidth=1;shadow=0;" parent="WIyWlLk6GJQsqaUBKTNV-1" vertex="1">
          <mxGeometry x="673.75" y="524" width="122.5" height="66" as="geometry" />
        </mxCell>
        <mxCell id="diwaLmmGGXgiSM8Ft7Uw-53" value="&#xa;&lt;span style=&quot;color: rgb(0, 0, 0); font-family: Helvetica; font-size: 12px; font-style: normal; font-variant-ligatures: normal; font-variant-caps: normal; font-weight: 400; letter-spacing: normal; orphans: 2; text-align: center; text-indent: 0px; text-transform: none; widows: 2; word-spacing: 0px; -webkit-text-stroke-width: 0px; white-space: normal; background-color: rgb(236, 236, 236); text-decoration-thickness: initial; text-decoration-style: initial; text-decoration-color: initial; display: inline !important; float: none;&quot;&gt;Trả ra các video đã cắt&lt;/span&gt;&#xa;&#xa;" style="whiteSpace=wrap;html=1;rounded=1;glass=0;strokeWidth=1;shadow=0;" parent="WIyWlLk6GJQsqaUBKTNV-1" vertex="1">
          <mxGeometry x="484" y="424" width="124" height="68" as="geometry" />
        </mxCell>
        <mxCell id="diwaLmmGGXgiSM8Ft7Uw-55" value="" style="shape=image;verticalLabelPosition=bottom;labelBackgroundColor=default;verticalAlign=top;aspect=fixed;imageAspect=0;image=data:image/png,iVBORw0KGgoAAAANSUhEUgAAAncAAAG0CAYAAABQXgHlAAAKIGlDQ1BJQ0MgUHJvZmlsZQAASImVlgdUU0kXx+e99EZLCEVK6L23AAIJvUqvohISCDWGUGzYkEUFVhQRkSILslQFV5cia0FAEWURsNcNsgio62LBhso+ZOvZ833f+e47981v7sy5c+fNnPP+AJBSOEJhCiwFQKogQxTk4cyIiIxi4B4BAsAAAOSBJIebLmQHBPgiPfBH+097cxNAi+01o8Vc/x7/rybNi0vnAgAFICzkpXNTEe5B2J0rFGUAAOMR1liXIVxkQ4RpIqRAhFmLzF/ikEWOXeKEL3NCglwQzgYAT+ZwRHwAiLuQOCOLy0fyEBsRNhXwEgUI30bYkZvA4QFAkkfYMDV17SK7Iqwb+7c8/H/kjP0zJ4fD/5OX9vLF6MF+IeY2bCsrU4YLJyUxVsTJiOOZ/58f539ZakrmH+stngA5ThAajLT6iCuBYOAHQoA5sAFsYIU8poABXAAHpIBEEAtECGWAOMBDZoCMuPUZi0lc1go3iBL5CRkMNnKScQwvAdfYkGFuasYEYPFeLC31iv5lNYh++a/YKuT8LEhI8OFfMSFyg84hZ0Pp+iumtw3p1wDQd5CbKcpaiqEXXxhABJKABhSACtAAusAIqcsa2AMWcAPewB/ZSSRYDbggAaQita8D2WA7yAMFYC84AMpBNTgCGsExcAJ0gtPgPLgIroARcAPcA2IwCZ6CWfAGzEMQhIMoEBVSgFQhLcgAMoeYkCPkBvlCQVAkFAPxIQGUCWVDO6ACqBgqh2qgJug76BR0HhqERqE70Dg0A72EPsAomAzTYGVYGzaBmTAb9oFD4FUwH06DN8K58B64DK6Fj8Id8Hn4CnwDFsNP4TkUQJFQdJQaygjFRLmg/FFRqHiUCLUFlY8qRdWiWlHdqAHUNZQY9Qz1Ho1FU9EMtBHaHu2JDkVz0WnoLehCdDm6Ed2B7kdfQ4+jZ9GfMRSMEsYAY4fxwkRg+Jh1mDxMKaYe0465gLmBmcS8wWKxdKwO1gbriY3EJmE3YQuxVdg2bA92FDuBncPhcAo4A5wDzh/HwWXg8nCHcEdx53BjuEncOzwJr4o3x7vjo/ACfA6+FN+MP4sfw0/h5wlSBC2CHcGfwCNsIBQR6gjdhKuEScI8UZqoQ3QghhCTiNuJZcRW4gXifeIrEomkTrIlBZISSdtIZaTjpEukcdJ7sgxZn+xCjiZnkveQG8g95DvkVxQKRZvCokRRMih7KE2UPspDyjsJqoSxhJcET2KrRIVEh8SYxHNJgqSWJFtyteRGyVLJk5JXJZ9JEaS0pVykOFJbpCqkTkndkpqTpkqbSftLp0oXSjdLD0pPy+BktGXcZHgyuTJHZPpkJqgoqgbVhcql7qDWUS9QJ2lYmg7Ni5ZEK6Adow3TZmVlZC1lw2TXy1bInpEV01F0bboXPYVeRD9Bv0n/IKcsx5aLk9st1yo3JvdWfpk8Sz5OPl++Tf6G/AcFhoKbQrLCPoVOhQeKaEV9xUDFdYqHFS8oPltGW2a/jLssf9mJZXeVYCV9pSClTUpHlIaU5pRVlD2UhcqHlPuUn6nQVVgqSSolKmdVZlSpqo6qiaolqudUnzBkGWxGCqOM0c+YVVNS81TLVKtRG1abV9dRD1XPUW9Tf6BB1GBqxGuUaPRqzGqqavppZmu2aN7VImgxtRK0DmoNaL3V1tEO196p3ak9rSOv46WzUadF574uRddJN023Vve6HlaPqZesV6U3og/rW+kn6FfoXzWADawNEg2qDEYNMYa2hgLDWsNbRmQjtlGWUYvRuDHd2Nc4x7jT+LmJpkmUyT6TAZPPplamKaZ1pvfMZMy8zXLMus1emuubc80rzK9bUCzcLbZadFm8sDSwjLM8bHnbimrlZ7XTqtfqk7WNtci61XrGRtMmxqbS5haTxgxgFjIv2WJsnW232p62fW9nbZdhd8LuV3sj+2T7Zvvp5TrL45bXLZ9wUHfgONQ4iB0ZjjGO3ziKndScOE61To9YGiweq541xdZjJ7GPsp87mzqLnNud37rYuWx26XFFuXq45rsOu8m4hbqVuz10V3fnu7e4z3pYeWzy6PHEePp47vO85aXsxfVq8pr1tvHe7N3vQ/YJ9in3eeSr7yvy7faD/bz99vvdX6G1QrCi0x/4e/nv938QoBOQFvBDIDYwILAi8HGQWVB20EAwNXhNcHPwmxDnkKKQe6G6oZmhvWGSYdFhTWFvw13Di8PFESYRmyOuRCpGJkZ2ReGiwqLqo+ZWuq08sHIy2io6L/rmKp1V61cNrlZcnbL6zBrJNZw1J2MwMeExzTEfOf6cWs5crFdsZews14V7kPuUx+KV8GbiHOKK46biHeKL46f5Dvz9/JkEp4TShGeJLonliS+SPJOqk94m+yc3JC+khKe0peJTY1JPCWQEyYL+tSpr168dFRoI84TiNLu0A2mzIh9RfTqUviq9K4OG/ICHMnUzv8ocz3LMqsh6ty5s3cn10usF64c26G/YvWFqo/vGbzehN3E39WarZW/PHt/M3lyzBdoSu6V3q8bW3K2T2zy2NW4nbk/e/mOOaU5xzusd4Tu6c5Vzt+VOfOXxVUueRJ4o79ZO+53Vu9C7EncN77bYfWj353xe/uUC04LSgo+F3MLLX5t9Xfb1wp74PcNF1kWH92L3Cvbe3Oe0r7FYunhj8cR+v/0dJYyS/JLXB9YcGCy1LK0+SDyYeVBc5lvWdUjz0N5DH8sTym9UOFe0VSpV7q58W8WrGjvMOtxarVxdUP3hm8Rvbtd41HTUateWHsEeyTryuC6sbuBb5rdN9Yr1BfWfGgQN4sagxv4mm6amZqXmoha4JbNl5mj00ZFjrse6Wo1aa9robQXHwfHM40++i/nu5gmfE70nmSdbv9f6vrKd2p7fAXVs6JjtTOgUd0V2jZ7yPtXbbd/d/oPxDw2n1U5XnJE9U3SWeDb37MK5jefmeoQ9z87zz0/0rum91xfRd70/sH/4gs+FSxfdL/YNsAfOXXK4dHrQbvDUZeblzivWVzqGrIbaf7T6sX3Yerjjqs3VrhHbke7R5aNnx5zGzl9zvXbxutf1KzdW3Bi9GXrz9q3oW+LbvNvTd1LuvLibdXf+3rb7mPv5D6QelD5Uelj7k95PbWJr8Zlx1/GhR8GP7k1wJ57+nP7zx8ncx5THpVOqU03T5tOnZ9xnRp6sfDL5VPh0/lneL9K/VD7Xff79r6xfh2YjZidfiF4svCx8pfCq4bXl6965gLmHb1LfzL/Nf6fwrvE98/3Ah/APU/PrPuI+ln3S+9T92efz/YXUhQUhR8T5IgVQiMPx8QC8bEB0QiQA1BFEW61c0m2/6xzob4rnP/CStvti1gDUIJojsgeAUKStQlyXheRGhhYlZwgLwBYWf/rvlh5vsSTVILIIkSbvFhZeKQOA6wbgk2hhYb5qYeFTHVLsHQB60pb04qL5GiFzuhZpkNb0L632Gzcovg6RKnMQAAAAVmVYSWZNTQAqAAAACAABh2kABAAAAAEAAAAaAAAAAAADkoYABwAAABIAAABEoAIABAAAAAEAAAJ3oAMABAAAAAEAAAG0AAAAAEFTQ0lJAAAAU2NyZWVuc2hvdDa094YAAAHWaVRYdFhNTDpjb20uYWRvYmUueG1wAAAAAAA8eDp4bXBtZXRhIHhtbG5zOng9ImFkb2JlOm5zOm1ldGEvIiB4OnhtcHRrPSJYTVAgQ29yZSA2LjAuMCI+CiAgIDxyZGY6UkRGIHhtbG5zOnJkZj0iaHR0cDovL3d3dy53My5vcmcvMTk5OS8wMi8yMi1yZGYtc3ludGF4LW5zIyI+CiAgICAgIDxyZGY6RGVzY3JpcHRpb24gcmRmOmFib3V0PSIiCiAgICAgICAgICAgIHhtbG5zOmV4aWY9Imh0dHA6Ly9ucy5hZG9iZS5jb20vZXhpZi8xLjAvIj4KICAgICAgICAgPGV4aWY6UGl4ZWxZRGltZW5zaW9uPjQzNjwvZXhpZjpQaXhlbFlEaW1lbnNpb24+CiAgICAgICAgIDxleGlmOlBpeGVsWERpbWVuc2lvbj42MzE8L2V4aWY6UGl4ZWxYRGltZW5zaW9uPgogICAgICAgICA8ZXhpZjpVc2VyQ29tbWVudD5TY3JlZW5zaG90PC9leGlmOlVzZXJDb21tZW50PgogICAgICA8L3JkZjpEZXNjcmlwdGlvbj4KICAgPC9yZGY6UkRGPgo8L3g6eG1wbWV0YT4K07YCcQAAQABJREFUeAHsnQm8jNUbxx+7LEmEkCVbqJRKUdlDIlmSLJWUokjIEtpU2ihaVChSQkSyZM0WirJVlEpliRCS7M3//J7+Z5o7d+bO3GuW9535nc9n7syc97znPOd7ztx55jnPc04mj0nCRAIkQAIkQAIkQAIkkBAEMidEL9gJEiABEiABEiABEiABJUDljhOBBEiABEiABEiABBKIAJW7BBpMdoUESIAESIAESIAEqNxxDpAACZAACZAACZBAAhGgcpdAg8mukAAJkAAJkAAJkACVO84BEiABEiABEiABEkggAlkTqC/sShQJZMqUKYq1s+poEnDybkecV9Ec+cSsO9LzmXMwMedJNHsV6TkYDVmp3EWDaoLW6YYJnaDoM9wtN3xxcV5leHiT7sZozWfOwaSbShnucLTmYIYFCnIjl2WDgGE2CZAACZAACZAACbiRAJU7N44aZSYBEiABEiABEiCBIASo3AUBw2wSIAESIAESIAEScCMBKnduHDXKTAIkQAIkQAIkQAJBCFC5CwKG2SRAAiRAAiRAAiTgRgJU7tw4apSZBEiABEiABEiABIIQoHIXBAyzSYAESIAESIAESMCNBKjcuXHUKDMJkAAJkAAJkAAJBCFA5S4IGGaTAAmQAAmQAAmQgBsJULlz46hRZhIgARIgARIgARIIQoDKXRAwzCYBEiABNxH4559/5OTJk24SmbImKQHO0+gPPJW76DNmCyRAAg4hsGPHDsHZkMEegcQ8ePCglt+/f3+gy6eVd+TIkaCyfPDBB+mq+80335TWrVun6x7fwo899pjccccdvlmpXh87dkzeeust+fvvv1NdY4bIqVOnUo3nmWeeKTfeeKP89NNPrka0cOHCVH2zn6OdO3emq29nn322rF+/Pl332MKYe2j3hx9+sFkBn3/55RdJ72coYEUuzczqUrkpNgmQAAmkm0CRIkUECh4SvlwaN26szwULFgxZVzQOl7d1Tps2TapUqZJChkKFCqV4H+03t99+u0B5SysdPnxYOnXqJI0aNZJcuXKlVTSpr0GpqFmzpjLYt2+fNGnSRO6++26BguTWZOdqICW1cOHCMetWzpw5ZcmSJVK0aNE029ywYYP069dPbr755jTLJepFWu4SdWTZLxIggVQEsmTJol8K+GKwytO5556refiCevLJJ+W8884TvO7Zs6fAsuabsPTZq1cvadeunZw4cUJ27dolt9xyi5Zv0KCBrF27Vot/8cUXmv/EE09ofZdddpmsWrXKt6oUr4sVKyalS5dO8cidO7ekVQ9kefzxx6VChQqCtj///HOt8/fff1fF4qWXXtJruD5z5kxvezNmzJDKlSsLLEo33XSTbN++Xa8tWrRIpk6dKkePHpVq1arJmDFjtFyZMmVk9OjRWqZly5b6fP3118uePXu8dfJFSgL58+fX+YU5VrFiRYHi/P3332uh48ePq9IBrpgXEydO9N4MJb9OnTo6Nrfddpv8+eefem3Tpk3efIzNZ599pvkrVqxQq6CtAPmtWrXSt2+//bY88sgjqozfc889umQP6yzmNsb/lVdesbfJ2LFj9ccFZHr00UfTXN73n6d4j8/VG2+8oe116NBB28APJztHvv76a6lXr57OR9R/6NAhbRvK7l133SUPPPCA3oO+f/fdd3oNVtBAn0d87gYOHCh//PFH0M/H1q1bpUePHmottTy8nU2WF0YbZyKBkATM5yFkGRZwHgGnj1s85VuzZo0H7RtlSAfOLGt68ubN6zFfeh5jGfAUL17cY75EPAcOHNBye/fu9Tz44IOa/+uvv3qMcuW54oorPNddd51n/vz5HmMl0HJm+Vbfo+7mzZvr66uvvtpz7bXXppogxhKm9xglzTNhwgTv4/3339eyqDdYPSgDeYcNG+Z55plnvOW2bdumryHb4sWLPQ8//LCWM0qF55tvvtFr5ovPY5RNzw033OCBbOiLUQQ85ovZY2UqX768Z+7cuR5jqdN7jKKr7yHPhx9+6DFWvlT9iXYG2o50imSdxpdMWU2ZMsVjFBudW0uXLvWAZZcuXVT0vn37es4//3yPse55xo0bp+U//fRTLQ9ZJk+erHPm4osv9gwdOtRjlG2dc0ah9ixbtkznJMZ99+7dntmzZ+s1y8Qo8Vo33hvFSOtu2LChxyjuntdff13nAcqMHz9erxkrnNaBdkeMGKHtYt5jPvonOxd95yleQ3YkzB/Ug3vRN6PYeutBfyEH+ob5hnLr1q3zYA7jtbFqat+aNm3qadasmdYX7PNo56dRloN+zlDm6aefVhm+/PJLrS9SfyCvG5I7pHQDyQSX0S0TOsGHId3dc/q4xVM+f+UOyhCUOZtGjRqlX5xWubv33nv1y9H4+mgRe7+xEuh7KEj4QsMXu/0iNBYKvTZnzhy9V9/4/LFfVPjyq1q1qvcBWZDSqgeKmLEuemuDIomHVe5Wrlyp1yAX6ofC2r9/f89VV13lvcdYhPTL1fgnpVLuoBAgGeuRlkFZs8Sor83StreOWL6IxnyJZJ1WuUOd/g/MG2ON0nwoVzZhHLt16+bBGOCel19+2YN5g/ebN2/2YO4gH+NgE5Q7KFahlDvMR7SJhDnlq7SNHDlS5wQUKijwNhmLrSqj9r19tnPRd57idffu3bUIlDvfHzCYa23btvVACYP8UHaRvvrqK33vq9xBgUXCjyaUxeci2OfRfmZ8lbtAnzNjofYqulp5hP5APjckLsuakWIiARIgAfNFKpdffrkXBJab7JIlMo3lQ5eTbGCF9T1COTh4Z86cWbAkapeisCSXJ08erQ9LoHYpytuAzwsszRkLg/eB5VibgtUzffp0qV69ui0mNWrU8L7Gi3Llyul7yIalWSzZ/fjjjynuKVmypJaxMuub///B8jSSUST0OZQ/nhbiHyUAnzvMBWNdk9WrVyvDF154QZfxUQBLlxgXPIyip+VKlCghKGMUPS3ftWtXnVMIDKhUqZJ3HHC/serpPXjtm/yjUOvXr691oAzmN5aIbTI/VnT5HsugWIK38sCn8rfffrPFUj37zlO8Hj58uLcMlnVtypcvn7o1GMulGMulWL9WyO6b8D5HjhyaBfcEJPjLhfo8akHzJ9jnw15P1mcqd8k68lHuN/wh4Cfy119/RbklVk8CkSEA/ydfZQ4+UmYpyVu5sdSJsUQI/JfgD4QvLyT43Rlrgj7wRW790rJnz+6993ReBKsHX4o2OAT1Q17fZJVJY2WQ5cuXC/zALrroIjHWEW8xG3F44YUXevPsC/hRMWWMAFifc845qnjgBwMUtY0bN3rnDPwe7ZyBEvPUU08JAi/MkqT6PML/Ef528JGDQmassTrnIA3GE8oPfO+Q4MNnk+/Y2jz7fMkll4hvVKtZWhfMaUSumqVirzz4DJilVntbup4DzRn8+MHctIqn72cMleO7wiY7h6Gwhfo82nuCfT7s9WR9pnKXrCMfpX5/++23+qEsUKCA99cmnGXhBIsPN34d4pfiggUL1IE2o2KEsyUDfjmjPWxDcLoJX442IiycLSOCtecrd7gh/cHqYn5kCSC4wPhAqRM2vjCNP5BGhdpW8CX17LPPillWErNkK2ZJSi/B8pI1a1b9QjRLSWqxsfeE+4zPBL6wfR/Gxy/N26FEvvPOO7olhPGlk48++ihFeWyNgs/ce++9p1ZDs2Sm0cHz5s1TZQ+FzdKemGU5r+UkRQUB3sA6iWStlwGKMCsAAQTtQNlGkIxZFpd3331XlbKff/5ZYF2DMgcLHeYUFHYEFuCBbXisdRZBLRjPTz75RFuAcgdLF/7PwTqG+QLrcrBklux1vqBNzBfMH/xAQfsI5IC1Dj/G77vvPrUgBqvHd47a1/6BR773XnPNNWp1hGz4n2eWg30v6w8qs/Ss11577TVViGHFDPV5TFFJgDeYq+iPVSoDFEnsLDesHVPG+BMwn4KQQsCnAr4g5leqOqEbhc5jloI0b9CgQR68Rz3w3TG/1jzWJyhkxQEKhOP78+qrr2rbaNP8AwxQS/hZcIpG35DghIw+ZCT5yg1fGPhBwYckWimccYtW2+HUG0/5rM+cnRvmy81jrGE6RyEXfH7gtG597jBnkYYMGaJzAfeZ5VRvedwDJ24k+CfBMd0mfA4C9dV82aW4H2XsA4EdadVjrDAes1znLY/gCPOF7fW5gz8U6sK8NUqpigL/uzZt2njzjYXEY6Js9Rp8pkxUpzegAvPcJtRjto7Rt9YhPh5+d5Aj0imSdRpFQtmaKNAUYtoABvhngiPmBtrFA36SCHZBMtt2aB7GBUEYmDdImAsoi7HEM/zikPA/FQE99hqCEeBfiWSsgZ727dvra/zBXPadE9a/FAFAdevW1TpQD+Y9/P38k/lB7i2Dcr4P9Anzx9d3D0E+mI9ICNaw5TF/0A/cY4OC0F9cBxfLLtjn0frcbdmyJc3PB+an5ejfl9N5DzndkNwhpRtIJriM4Uxos+2DfjjtPyqLxPgG6Zeer3Jnlq/0n5otY8L29YsV/5jwTwJlEZ2HfzTmF6t+ieEanNyRateurf8M8GVsv5xtXfYZ/8jML0H9gJswfZvtMX4tnkcffVSjsvDhxxea+YWs//zgEPziiy/qP1b8c/3444/1Pl/lDvIgEg3J/HLV6C/8s8KXJv7hICFCC//YUD++dHE/kq/cZnlCHZDhAI9kLC/aT9SFf9I2H1FuUI7xjxr1IWouWJ+1Ip8/4YybT/GYv3SafPhyxhjiyw2KUDjJWAc8ZslNf7CEUz6SZfA5Mct6KZztbUAFlFL0Awqkf8IXH+7D/RlJVtHNyL2nc0805ks06gzVR3DHD0T7GfctbyxrGoTgm4fXUMIwzwL9GIQiFG70Mtr0L4u5vtUonpgT4c57f/lCvcePfwSV+NYP5Q7/4/G5swEnvvVk5PPoez84+wai+F7L6Ot4zJeMyErlLiPUkvCecCa02R3fY3a4D0oHHzTUg39qsEhAUUFCxBfy/UPx7S80KFnp3ZLBLA9rnVCC+vTpowqYFQxRj2jPWkagNJo9wbwWD/yz8d9Cwle5g/KJCDcon+jDnXfeqcqbb9QZZO7cubMHSqzZF02VNvxTQz/QNraSwD9rvDZ+JiG3qEC5QFsM2D4Fe8Z9Tk5Ol8/J7ILJZpU7/GBJtBSN+RKNOhONe7T6Y5W7aNUfjXrdMl+c/Z8/GiPDOjNEIJwJjeUBGxYfqJFgyp2vUoT7bCi+Ve4ysiUDLF2oFwnLv5Afv0yRoNxhzyWb8A8GFjX7pWiXi6GMQfHD0mkg5c4qpfaXNJaxsNcZEurElyt+NdolGSiDvsuytn9Q7kJtURFoiwErf1rP4YxbWvdH+5rT5Yt2/6NRP+YclsT8rTPRaCvWdUZjvkSjzlhzcWt72HcRqzZuSm6ZLzx+zIwUU2QIIAzeWLxSVYYgC+QbS1aqa8iAM7lZ/tRwfFvALE3al7rDP97YPAQlpJUQyYjd0uHkC5lsNJnZf0x69+6tt2KHdptKlSql8uE+pEBbSMAp2D8hMs1Y6LzHMMHh3vhjaTFEgKEeYzkUoyD635rqfagtKgJtMZCqEmaQgCGAzwmiH5lIwOkEsMULHkyRJ8Bo2cgzTdoasZ0Coqewt5Nvev7559M8JDpUKH6g8Hrf+v1fm13cVamCMoeoRkRAYu8m8wvRWxRRaDbhaByzvKpH6CAv0BYStqzvMxQ73xB/bDNgNiDVvcQQcYZ+Q8FEJFqoFGqLivQyCNUer5MACZAACSQuASp3iTu2Me+Z8bcTE+2kipRZAtV9k7A5Js4txN5gwVJ6Q/FRT1pbMmCbAYT547xNEwWmD+wzBQsi9ppCMsfg6NYDUMggn+9+ZoG2kNCb/P6YqC+1kkCBRIj/4MGDdRNa7FeFhH5hKxbj26fvzTJvULlxDuPpbFGhDfAPCZAACZAACRgCVO44DSJGAHs4wUplog11KRK78+NQaN89wdAYFB7fhIPYoRSWLVtW95KDwoX9xIIl3H/WWWcJlCtYC1HeJihZUChN5KrN0udLL71U28DB6EjYd6qUWY7FPlGwrhkfJc3HHxP0INmyZdONRyEHlnD9ZYZyic0zzdmPWg59x27tJnhDTECGmAhZrTtnzpy6txUsg+b8xBRyY18pJNQN+XAP9iLDaQZvvfWWHo6tBQL8scptgEvMigABLKc7cS83/GiybgYR6CarcDkBp87TcLDixy6+K5iiRMBNjoyUNX4EzPQLu3EEIiA4AYECCKIIJ+GerRkIxc/IlgwIqEDgA7aI8N3PyQZUpLWFRKC+IDDCKJipLuGcRGyTgYRgCkTH2hRM7tPdosLWb5/TM272nlg+O1U+BNjYfd0iwQMBOYiURsLZs9jPLFBCkA6itW0Utm/EK15jHzAESpiNtHVOBarD5iGoyO67Z/Pc/hyN+RKNOmPFOdLz1MqNvfewhVVGUjhzE/UaP2zvPngZaSde97hlvtByZ0aKKbIEYImCJQ4BBdi5P5yEe0oZSxrOwPS3kqV1P475yWg644wzBDuh+ye0j3xcDyflypVLLYH+ZXE2Jyx6SLDgwdpoUzC5ixYtqgzC5Wbr43PkCCDAxyjsen5npGo1EdjeI53Ml1LAanGMGZbnEZQDP1BYdm2ADm6AD+ltt92mFmPzBRrSgmcDhAI2xkzXE4jGPPWFAstaRlI4cxP1YoUlWJBdRtrlPSkJULlLyYPvkoAAjiODP55/wlE8WJ6FIsaUvATggwkfTSScsYkzLqHw16tXTyO7kY+gHbtcj0hmY5lDtjRp0kQPPMdrLOuiDHxAzabXYk5MERzFh2Sjo1Ev5iICfHDOK44CQzs4lxTHL+EL3CYc3wS/1ipVqmgWlvJxHcdJQSlEXWhv5syZ9hbvM/pUs2ZNPQcXUd4oj+V/5GFpDEdXISLcbGWk+fiRheAoJucSsPMUOxE0atRIjyvDHMCY2nmDI8xwPB7GE+fIIuALPzox9h07dtR5hx6iPO7D/ZgHmJ9I8APu1q2bvsYf/NhAu0hmM/gUdR09ejTV3DT7h6qrDept0aKF96xx+CWb0zd0rmtl/BN5AvEybbJddxEwM89dAlNaJeD0cXOafFjyxNKniZjWU0AgH5ZRzReXByewYHNq7JqPY7/MGZnqdoDTSnA6CRKu2+VcozDp/opYtsdRT+ZLUo8y++CDDzR/1apVeqoFTlLBXoi+CUuwyMdG20jr1q3TI6LwGjv9Qy7s6A+3B3NWqeehhx7SZVq7STZOOXj44Yd1WRYnnGC/RnucGI5/Ml/yuryLk1twygvcClAn2oO8Xbp0SXGUFNp1QorGfIlGndFm5TtPjTKvY4fTdOBqgmVRjClcXTCX8RpuASiH02+MVVjnIfYBxVGRSCiDTdLhPmLrw0brmKu+LgQ9e/bUE3zMWbDqOoATLeyxZjju0XduYg6DLU7xwZzCST34LCFhntlTfjTDRX/cMl9ouTMjxUQCJEACIACrF6xnCAZasWKFHvKOyOscOXKI2What76BpWz58uVSyrgRDB8+XMyXoC7jBiOIZXvsPYcleliHkcwRcnLllVcKlueN35Razuz9aBdWORwMb6PMEWBjl7AKFiyoRWHdM/6hYpREMaemqMUZVkDUbTbe1jI4bN74mKpFGvswWosJgpDM2aN6aDssdMbXU8ujLOSFJQjO+kzOJOA7TyEhgstgNYYrifEnVqurDdjCagQCtcyZrWo5hnUX83DAgAG61I9xxhzAHqBYtUBgF+ZkWsmcMKTzChZBBIthvsFlwHduwjoIuRDcZo50FOMDqrsYoF5zLKSWT6sNXjs9AlTuTo8f7yYBEkggAtgGxxwnpz0yFjqNmrbds3sNYvkJS1cTJ05U38xbbrnFFknxnNZm21AeAyUsm6E+LOEay6D6rCICHAqkOW841S2QEQnR3TbhC9pG1OKLF/stGouL7t9oLH1aDEvJJUuWVAUVvk9QPKGA2j7auvjsTAK+8xQS+o6/9de1cwA/QpD85zPmCXYKsL6ZvnUE8ze2deI+3zLYG9RuAaWN/f+POV1IFTtcNycYybBhw/THCOYfloeZokeAyl302LJmEiABFxEw0dpilpXk8ssvV6nxDN86bHGD9N5776mVAl9q2DMRihj8iHCfdT6HRcT6qvluXg2fo7SUPdSPOuGbZ84jVssZ8pCg2N16662pfEHxRVu4cGE9JQUWOiSzTKbbEVWvXl3fw78UWw1hw22zTCtFihTR15ATSiwshLA+BlM2tRL+cRQB/3kK4eB3Z+cdfnRAqUdQG5LdNglWNGzoDiUM8xXWM1jpMCdwig6sw0jm7G8xy676GtY3zH/8KIAPqYnm1nxYlc0Ri+pDB0XPLN3K2rVr9Rr+YG7CGgwlDltDwXoIyyDKYK5aK7T3Br6IOIHwQhkj3iwrJAESIAFnEYDjuV0GhWSwbCEPTul2ORX7JCIfVgjsy4i9DhGcMGvWLHUQf/DBB6Vt27a6hIv7bIIShT0QEbgAhcs3QfHDA8tmWCKDImYTlrSgsCGYwjdhc24syyKqFl+y+HLFFygCM/CljaU3JHyxo27sNYkv2tatW2uAB+qFrJAfm2xba49tA/dYpcDm8dkZBPznKaSCIme2L1GlCooVNmn3H9NWrVqp1QzL8/iBgt0MJk2apPMDcwjuB/hxgWSPTISFGlH+BQoU0PlmdzNo166dKpSI7kddcGXAA8l3bmJe4vOCfUVhgUYwBhQ7//msN/JPRAlkgh9jRGtkZQlJAP/sOVXcN7ROHzcnyWf2OdQvMP9oaVg54NuGY/J8EywgUPrwJQqlClYO9AdfYljqwjJnJBKiWe15x2nVB8sKZAh3aRXlg23Jk1Y78bwWjfkSjTqjych/nuKHBZbwZ8yYoVY5KP1pJSh/cC3AXPFPOBMbcwJMfFOwfFjtUNb/M+N7Lz4P2FoICiLaxbzD5vFuTW6ZL1Tu3DrDYiy3WyZ0jLE4vjmnj5vT5XP8ACeZgNGYL9GoM5bDYpU7BFkwRZ+AW+YLlbvoz4WEaMEtEzohYEewE04fN6fLF8GhYFURIBCN+RKNOiPQ1bCrgFUMlmU3W8PC7qwDCrplvlC5c8BkcYMIbpnQbmAZSxmdPm5Oly+WY8W2QhOIxnyJRp2he8ISbiXglvnCaFm3zjDKTQIkQAIkQAIkQAIBCFC5CwCFWSRAAiRAAiRAAiTgVgJU7tw6cpSbBEiABEiABEiABAIQoHIXAAqzSIAESIAESIAESMCtBKjcuXXkKDcJkAAJkAAJkAAJBCBA5S4AFGaRAAmQAAmQAAmQgFsJULlz68hRbhIgARIgARIgARIIQIDKXQAozCIBEiABEiABEiABtxKgcufWkaPcJEACJEACJEACJBCAQNYAecwigYAEsDM3EwlEmgDnVaSJsr70EuAcTC8xlnc6AR4/5vQRonxRJ+CW42SiDoINOIYA56RjhiJpBeEcdPfQc1nW3eNH6UmABEiABEiABEggBYEsj5mUIodvSCDJCOAXau3atZOs1+yukwlwTjp5dJJDNs5Bd48zl2XdPX6UngRIgARIgARIgARSEOCybAocfEMCJEACJEACJEAC7iZA5c7d40fpI0Dg8ccfj0AtrIIEIkeAczJyLFlTxghwDmaMm1Pu4rKsU0aCcsSNAKPC4oaeDQchwDkZBAyzY0aAczBmqKPSEC13UcHKSkmABEiABEiABEggPgQYLRsf7mzVQQQYFeagwaAoSoBzkhMh3gQ4B+M9AqfXPpdlT48f7yYBEiABEiABEiABRxHgsqyjhoPCkAAJkAAJkAAJkMDpEaByd3r8eHcCEGBUWAIMYoJ1gXMywQbUhd3hHHThoPmIzGVZHxh8mZwEGBWWnOPu5F5zTjp5dJJDNs5Bd48zLXfuHj9KTwIkQAIkQAIkQAIpCDBaNgUOvklGAowKS8ZRd3afOSedPT7JIB3noLtHOaxl2Scmfylbdh1wd08p/WkTKJA7p+w7fPS062EFJEACJEACJEACoQlUKp5f+reoGrqgX4msfu8DvoVi179NrYDXmJk8BIZMXCLju9dLng6zpyRAAiRAAiQQRwIdRizMUOv0ucsQNt6USAQYFZZIo5kYfeGcTIxxdHMvOAfdPHoiVO7cPX6UPgIEHnvssQjUwipIIHIEOCcjx5I1ZYwA52DGuDnlLip3ThkJykECJEACJEACJEACESBA5S4CEFmFuwnwF6q7xy8RpeecTMRRdVefOAfdNV7+0sZMuTu4f5+cOnnSv/1U73//bYfs2rlNPB5Pimvh3JviBr4hgTAJPProo2GWZDESiA0BzsnYcGYrwQlwDgZn44YrUVPu9u7+Te7v0NzLYMYH78nEsa973/u/WL1yqdSsXEzqXFJK6l16vlxZtoDMmT5Ji239YbM0uLyc/y36fsXi+fL9txsDXrOZjWtUlrWrV9q3YT//uvUHqVw4mxw5/Jc+f75skffem+tXk3tvbep9P/fjKVKtzNlS75LSWhb3+T4eebCztyxfkAAJkAAJkAAJkEC0CERFuft4ynvSp+vt8um8mV65m996h7zx4hD5Y98eb559sf2Xn+SOm+rJ3Q/0lQ07jsjG347JE8Nel973tJf1X36eyopn78PzzKnvG8VthW9WqtfDx0ySCypdlCo/3Ixs2XNIjVr1Zd3/FcR9e3bLtxvXyrJFn8iRI39rNeu+WCk1618vHy1bLyu+/13enjpP8/Eaj/5PvxRucywXYwKMCosxcDYXkgDnZEhELBBlApyDUQYc5eojrtxhOXXThrVSsFCRFKLnyXum1L/hJpk5+d0U+Xiz7NO5Urzk+dKhc3fJkjWrZM6cWRo1ay1XXlNHli2Yo+UPHTpolL12ah17+uEeguVbWMsWzJ4urz73hKxaulC2bP5GurZrpmXuaXOD16L3xrCnZNsvW7VM//vvkF53tdEyPTq1lqN/H04lT6CM6rXryVdf/KtEfvHZYrm2biOpdNGlsv7/Ct+q5Z9Kjdr1Bf3Mly+/5DbPSHiNxxln5EpR7eG/DsmA7p3UWnlLw+raFxQAv9eef0Llu/HaKjJt4li978fvN0nbxtdoPuSHgomE67BMNqxWQd586Wn5559/5Phxoxz3uU/r7tPlNvlm/ZdadrlRRts3raVlx73+khw9ekTzk/0PfUuSfQY4r/+ck84bk2STiHPQ3SMeceUOR5b0eeIFuavbQ6nIlKtYWRb/X1nzvbhk7mxpdGNL3yx93dDkLfxkhr6GMlSuQiWZunC1/L57p7w76hWp2+hGqVm3oXS6v5dcXr2mvPBYH7n0iqtk6cZtckX1a+UVoyQhffvNBjlsllb/OvSnYHm4aev28t6sZbLxy9UCpSycVK1GbVn+6Tz1G1y+aJ6x0jWSOg2byIrFC+TPgwdUkbz8qmvDqUrLTBz3uhwy8ny8fIP0evQZGdSjs5w8cUI2fb1Opr73tkz79Et5+uUxMmRATzl4cL8Mf2qg1Lm+qcxfs0UVx0lj31DfRFx/6qVR8uTwUTJ1wjhjyZwgc2dMkZ9/3CLzVn8v9RrfKEMG9lS5e97dVu5/6BF5d8ansnLJQvkizL6H3SkWJAESIAESIAESiDuBiCt3afWoZOly8otROvzT7l075OwCBf2z5fixY3LMPGy6rcuDcl6pMnL7vQ/KrA8nSrZs2SV7zjMkZ67ckjVbNhk2eqKULneBvPf2a7J00VzZvXO7vdX7fGm1GlK7QRMpd0FlufLaOvLbjl+919J6UfHCSyR3nryy+Zv1Mn/WNLmqZl2pXvs6WWCUz2+NZazIucWlROmyaVWR4tod9zwo7e7sosvK0ya8LVBeTxiL25K5M+XGW9pLsRKl5cJLLpfJ81bKsaNHVclt27Gr5MtfQJXnJq3aysLZH0lJ0+aWTV/L1u83S+ky5WXNiqVSyjx/bhS3oYMflhw5csqoyXPUIgrlc+gT/eUTo/z1Hfy8UVAbp5ApWd/wF2qyjrxz+8056dyxSRbJOAfdPdIxVe6y5cghOXKlXJ4EvgsqX2yUl49Tkfzs0/lyYZXLNL9AwULepc1sRpHLmj17qvI97mwtk8a9qcugNa+7PtV1ZOTJ8+9yKV5nyZJFPP+kjMqdPmmcLJk/C5e9iiWskVguvqpmPXlv9KuSN28+Ob9cRbnIKF8IHIE1sFaD9ClKb740RB7v201Omgji65q00PbwB8vHufLk8b7PnTuvHNz/h77PbvghQRYs8+7asV1ynHGGnPKc0ketho3lOmPtvOjSK2TKgtVyTuHCumQNf0akYaMmSMf7esrmr9dLk6svEizTMokwKoyzwGkEOCedNiLJJw/noLvHPKbKHQInrLLmi+3WO7vKl6uWyycfTVafMfidLTS+dAhYuL1LDy26b+/vGlyBLVFmG6tdgxv+jcSF4gULH3znVixZIA8//aK0an+X7PntN98mwn6NAIkZk8ar79uXq5ZJSWMFgzKFVKNWPflo8nhdjsV7WAuvrdNA82AFTE9aPH+23Nn1QWOF7CH/nDrlvbVuo6by6ZyPdQkZW8LccPWFUqhwEZXj07kfq1wjnh5kIo/fkPpNmsufBw5I05btpHmbO4z/3yrZ/vOPAh/DFUvnS+ceD8trE2bI1+vWyPZff5JmtavK1WYZ+6kRY6Rdp/tktbHyMZEACZAACZAACSQWgX+1lhj16ecfvpcKF6aOWr24ajV5ccxEGfjA3dKrcztd/sxplltHTZotlS+uKtgKBUuiCA7Yb6JtYTl7e9p8lfrSatXl0V5dpHTZ8tLWKIm3N6snZ+TOI9XNsunWH76TBWYJ1TchWMMmKIaZMmeyb/W5YdNWMvql53QrFiyVDnn5Le/1K2rU0tdX123gzbvG+N598vFUqXrlNd48fWHqTit16NzNBD3cL++88bKUMrJDiYSP4P19H1PrYF2zJQwYPDjwSV2K7T3oael2RyuBBbN4ydLy8jsfSv6zC2o/G19VUYMjypuI4EHPviJ7jE9ip5aNjO/eWPW1u6/3ICle4nxpaCyENcoX0kCQk6dOyvC3JqclYsJew7iHm/z3Wwz3PpYjgdMhgEhFWk5OhyDvPV0CnIOnSzC+92cyX14p1yUDyNNhxELp3+ZfxSbA5bCyYHFrWrOKjDVbhBQ6t1jAexDpuXPbz5LZLJcWLV4yVRlc3/3bdilUpJguqdoCh/48KLmMQodl1j2/79KIVSxbwpqX2VjdsputTNKbthkLWMHC53qXgtN7fzjloTwishVKGoIpEL2KaFskLPfmL3CO12qIvGPHjqpv3tkm3zchoOOQCbqAn55N4P3Tls1yXukyqiTa/D27dsqJE8el6HmlbFbYz0MmLpHx3f9d4g37JgcWhHIXxrSXcMs5sIsUyeUEOPdcPoAJID7noDMGEfpXRr53Y2a5mzdzqjRt0SaoYgeMsKphS5RgCdfPLVYi1eW8Z+bz5p3jswULAi0ymhC4Ee0Ea2RuyavNYIk3j3nYBMXSPyE4Ag//dGa+swQP34Sl5HIVL/TN0tfnFCmaKo8ZJEACJEACJEACiUMgZspdZRMYUbth08Qhx56QAAmQQJQIPPbYY1GqmdWSQHgEOAfD4+TUUjFT7tKzTYhTYVEuEiABEogFAfrbxYIy20iLAOdgWnScf+2/6ALny0oJSYAESIAESIAESIAEQhCgchcCEC//S2DvwcNSrkhKvz6yIQESiA4BnusZHa6sNXwCnIPhs3JiyaRU7lYsnu89dzbYoAzue7/ZSmRMsMtJl79k3Y9yZbnUp4gkHQh2mARiQID+TjGAzCbSJMA5mCYex19MSuVu5tT3Ze3qFWkODrbKCGe7jDQrSZCLq7/bLtmzZpKGl6beniZBushukAAJkAAJkEDCEEg65W7ux1NkgTn94tXnnpBVSxfqBsm3Nasj1cqcLY882NnsDbcp1eCOfGGw9L//Dt2LbsNXX0jbxtdIzcrFZED3ToI95g4e+EPzXnpygObf0rC6/Pzjd6nqcWMGlmMXrP1R2tcs50bxKTMJuJIArSauHLaEEppz0N3DmXTKXd1GN0pNcwRXp/t7yeXVa8qLgwfoWawzlq2XvGavuOce6eMdUZw7O+yJ/rLInHvb78lhetzYQ/d2kJbtOsrY6QvMaRl75flHH1Klb/2Xn+v1KQu+EOy198H4xFjSxXJs+2vLSrEC/5136wXEFyRAAlEhwEjFqGBlpekgwDmYDlgOLBqzrVCc0vds2bJLdnOsFzY4xokQCz+ZIau27BVshNxjwJNySfHcesoF5H352ccEZ9pOX7JO8p11tmzauE5wPu6pk6dkzYplcl6p883xZtP1PpS/u0c/3WS4fpObjEI4E1muTlyOdfXwUXgSIAESIIEkJZB0ljvfcf7DKG5Iuf5/ksWpU6f0feb/nz1apnxFuf6m1jL8qYGa//uuHXrG7SnPKcGjVLnycl/fR/Qa/tjTIzJnzuLNc+sLLse6deQodyIQYKRiIoyiu/vAOeju8UtK5Q5n5h0/dkywsXKZ8pWMlW2GjuLsaROlymVXSoFzCuv7G1q2kQFDhssXK5bInOmT5Mpr62p+dfPc5vZ75cSx47Ji8QJ3z4Ag0nM5NggYZpNADAjQ3ykGkNlEmgQ4B9PE4/iLSbcsixG5tFp1ebRXFyldtrzcbyxvPTrdIgUKFtIl2Ncn/rucCgUQj/xnF5SBRsFD+Rq16hvfu6HSqWUjOXHiuA7umClzUw0y7nNz4nKsm0ePspMACZAACSQ7gUxmuw9PKAgdRiyU/m1qhSrmquuH/jwouXLnkSxZssiRw3/JbrPkWvS8UpI9e46Q/Th54oRs//UnOa9kGcmSNbH0YyzHjpqzRp5pd2XCBlFA+Q5j2qtyH065kBOGBUggnQSwJEaH9nRCY/GIEuAcjCjODFcG/Wt893rpvj+xNJN0dB8BFDadYZS8UmUq2Lchn7Nmy5au8iErdFABLsc6aDAoStISoGKXtEPvmI5zDjpmKDIkSFL63GWIVBLchOXYHNysOAlGml0kARIgARJIZAJU7hJ5dNPRNxsd246bFaeDGouSQHQIMFIxOlxZa/gEOAfDZ+XEklTunDgqcZCJy7FxgM4mSSAIAUYqBgHD7JgR4ByMGeqoNETlLipY3VUpl2PdNV6UlgRIgARIgATSIhBWQEWB3DllyMQladXDay4mUK7IWdKpXvgBJS7uKkUnAVcQoNXEFcOU0EJyDrp7eMNS7vYdPpqhUFx3o6H0JEACJBAfAoxUjA93tvofAc7B/1i48RWXZd04apSZBEiABEiABEiABIIQoHIXBAyzSYAESCBeBBipGC/ybNcS4By0JNz5TOXOneNGqUmABBKYAP2dEnhwXdI1zkGXDFQQMancBQHDbBIgARIgARIgARJwIwEqd24cNcpMAiSQ0ARoNUno4XVF5zgHXTFMQYWkchcUDS+QAAmQQHwIMFIxPtzZ6n8EOAf/Y+HGV1Tu3DhqlJkESIAESIAESIAEghCgchcEDLNJgARIIF4EGKkYL/Js1xLgHLQk3PlM5c6d40apE4xAz549JVOmTCkeTZo0kZ07d8a1p2PGjJF9+/bFVYZwG//mm29k1qxZaRafNGmStGvXLs0yTrhIfycnjEJyy8A56O7xp3Ln7vGj9AlEoEuXLvLXX3/p45dffpFNmzbJ4MGD49rDhx9+WH777be4yhBu46tXr5Z33nknzeIejyfN67xIAiRAAolAgMpdIowi+5AQBHLkyCG5c+fWR4kSJaRly5aye/du7dvnn38u1atXl8KFC0vHjh3lwIEDmg8F8JprrpHzzjtPYP1DGaQbb7xRNm7cqK83b94ssAIiHTt2TPr06aPlL7vsMpk+fbrm//DDD9KiRQutH9d37Nghffv2ld9//12aNWsme/fu1XL2z9dff611nnnmmdKoUSPZsGGDXvr2229VBuS3bt1a5YdChSUe5FWuXFnefvttLQurZKtWrbTNBg0aqDKLC4FkQf7QoUOlQoUKUrNmTZkyZQqyvAn3QN45c+bIkCFD5ODBg3Lbbbdpm40bN5Z58+Z5y9oXM2fO1LrQ12CygAkcy9FumTJlvLxsHdF6ptUkWmRZb7gEOAfDJeXMclTunDkulCoJCUBR++CDD/QBBWXcuHFy++23K4m2bdtKp06dZPHixbJnzx7p1auX5uMZyh2Uvz///FNWrVql+Vii/Pvvv/X1kSNHvIrTtGnTZNmyZTJ//nzp0aOHNG/eXH766Sd55plnpEqVKvL9999LlixZ5NVXX1WlplChQjJ+/HgpUKCA1mX/9O7dW2rUqKFWvVq1aon9IoClD8rg1q1bVbEaOXKkrF27VkaPHi3r16+XsWPHygMPPCD79+9Xq+Q555wjK1eulKpVqwoUvH/++SegLFAm0eaKFStUtgcffFAVTytP6dKl5ZFHHpG6detq/WgHiulXX30lN998s3To0EHAwSZwAM/hw4dLsWLFgsoCjrAIfvrpp6osxiqCMFbtWB58JgF/ApyD/kTc9T6ru8SltCSQuASgEEHpgoIDSxKUEyg/UI6ggJ06dUqWLl2qFqQPP/xQDh06pJYqLEUWLFhQunfvLvCRSytNnDhRSpUqJUuWLNFixYsXV4WpUqVK8uyzz2oerHxXXXWVKnnIgMUN/oC+CUooZIUSCGvZ0aNHVZ6PPvpIlcG8efPKsGHDtA8TJkxQxQgKGB5QlmDNe++999TaiHpgedy+fbtgOTqQLIcPHxYomnfffbfcdNNNsmbNGn1vZYJCCqsnrJ+5cuVSBXngwIFStmxZfbz//vvyySefaPEFCxYIZHrttdfk0ksvlRMnTgSVBTdAqSxatKj66lkl1rbLZxIgARJwIgFa7pw4KpQpKQlg+fDNN99UK9fs2bPl+uuvVyUFy4ZQlqDc4YElQixzQvlDsla1bNmyBeTmGxABBTJnzpzeuvr3768WO1jTYKGDwoilSChGaSUsGb/++uuSP39+ueGGG7SoXUKGgoWUNWtWVbSgmEJ+m/AaVjS0hbLoE5RHKIr58uVTy5u/LFAwYYWrV6+eTJ48WYoUKeLtv63X93nLli1eLsiHAuebBg0apNZGLN/C4hlMFtwDpREpc+bY/btkpKIi5584EuAcjCP8CDQdu/9WERCWVZBAMhGA/xwUMyg0SHhG0MXx48fVagYfsIsvvliWL1+u1+FDZhMUvnXr1ulbWNNsQqQorFydO3dWnz4oVKgPChqUvhdeeEEtWr4+arjum2BFg7VtxIgRakmzEb2wkpUvX15mzJihlrkBAwYIlmXh/wcZoERt27ZNLrjgAm2rYcOGqqR17dpVLrnkEvWpgyIVSBZY27p16yb33HOPoJ9oBxZA/wSfQiT0E1bKkydPqj8glrOxZItUv359VY5hIezXr58qgcFk0Rvi8IcWwjhAZ5MpCHAOpsDhvjdmeSRkaj98QcgyLEACbiFgPqVhiRpuubAqC1HI+JB58PBNr7zyiscsm3qMwuIxy6362ixNevAwAQxa1ChSnvPPP18fRllBKKjmv/XWW/oaZY0FUK/jgrECeoxPnNaBssbvTsubZVaPsah5jO+bljXKmOYbXz/NN1ZCfW//3H///VoH2jaKopaZOnWqx/iyeds1S7seY83zGGXQU7t2bS0DedAvpM8++0zbQx5kMUulmh9IFqNgeq6++mqtA/1En4w1TsvbP0aZ1evGV8hjAjtUPlu3iTrWYkbh86BPSCbQRNs1S9RBZTFKpMf4M2p5Y4HU8vomyn/sOEa5GVZPAkEJcA4GRRPTCxnVvzJBSjOIaaYOIxbK+O7/Wg/SLMiLJOACAlgCDGPa61JhOOVi1WUsLWKJExY7LHnaBOsUlmhxvZTxp7MyY1sVpDx58tii3mdY21CHUX68ebCswe8NljW7BIm6EJmL5Vf/tGvXLvXHg48brHmoD8us1v8O/oK+CVuqIM9XdlxHpCuWWX3lDCQLymK5FbLAxzBQspY7yGF5oW4s94aTAskSzn2RLoMlMTq0R5oq60sPAc7B9NCKXtmM6l9U7qI3JqzZoQTcqtyFwolgBF/lLlR5XicBEiABEnA2gYwqd/S5c/a4UjoSCJsA9sDDlh1MJEACJEACyU2Ayl1yjz97n0AEEBBhfNsSqEfJ2xVGKibv2Dul55yDThmJjMlB5S5j3HgXCZAACUSNACMVo4aWFYdJgHMwTFAOLUblzqEDQ7FIgARIgARIgARIICMEqNxlhBrvIQESIIEoEqDVJIpwWXVYBDgHw8Lk2EJU7hw7NBSMBEggWQlwG5RkHXnn9Jtz0DljkRFJqNxlhBrvIQESIIEQBHD6RzIm7LmIPQ19E85Lxn6MTCRAArEhQOUuNpzZCgmQQBIReOedd8ScOCLYniYjSp4bIxWxAfRll12mfcb5xzVr1pSPP/5YR3369Ol6DN3pTgEcVTd69OjTrYb3h0HAjXMwjG4lTREqd0kz1OwoCZBArAjgFA2c3AErFs7YTa+S5zZ/J5wMUqdOHalRo4bg9R9//KHnAOOMX5xwEqmEE1PsCSyRqpP1BCbgtjkYuBfJm0vlLnnHnj0nARKIAYGDBw+mqeThxBT/B8Tyz8N7pyZY6Mz5v/LCCy9I9uzZ9Yg5KHbPPfec/Prrryq2OddYbrrpJj2yrnXr1vL3339r/ttvvy2w9OFYvaeeekqwhIsEax/yoBj37NkzlVL3xBNPyG233abHzOkN/EMCJOAl8N8Bld4sviABErAEnPyFamXkszMJ+J6VCwmh5CFhuRZnBA8dOlTf40841ignz8VNmzZJ9erV9Wxhb6fMi3vvvVffYsl2w4YN0qdPH3n66aeladOmsmjRIqlSpYo88MADMmfOHPXJu/POO6VEiRLSpk0bVdw+/PBDVfyaNGmi5VEZWPXt21cWLFgg8+fPl2zZsmkb/BNZArTcRZZnrGujchdr4mzPVQTC+dJ1VYcobEwIwJLVoUOHFG3ly5dPlZ9HHnlE7rvvvhTX3P4G1rpDhw6l6gY+P1YpLV68uMCah4TlW5yFvHXrVilXrpx8/fXXmg8L3pIlSwRlL7jgAqlfv77mQ/mz9QwaNEgtoRs3bpSzzz5br/NP5AkwWjbyTGNZI5dlY0mbbZEACSQdASh1hQoV0iXH3bt3J5xihwEtX768WtasddIO8uWXXy4ffPCBvr3oootsti7bQvHbtm2bnHHGGXLq1Cl9wELXqlUrVfzOOussb3mUwfF6SJUqVVLL3sMPP+y9zhckQAIpCVC5S8mD70iABEjgtAns379ffcoSXamzoBo0aCDnn3++KrAnTpxQv7lRo0bJ9u3b1c/OlvN/btGihYBV+/btpWPHjrJy5Ur58ccfpVGjRrrkCssefPlgwVu9erXe3rZtW3n55Zdl8eLFMnHiRP8q+T5CBBgtGyGQcaqGyl2cwLNZEiCBxCUAR/8XX3xRImWpQyQqEpYmnfCw8tgRzJ07t0yZMkU++ugjDaiA1Q0BD/CZsz5xmTOn/LpBP6pVq6aKG5ZmETgBZQ7sihQpon51UBjPO+88gdUPCqTte8GCBeWVV16Rzp07y759+6wYfI4gAfrcRRBmHKrKZEzjnlDtdhixUMZ3rxeqGK+TgCsI4AsijGmvXyThlHNFpymkYwmEMx8HDhyoVjGnzMdgMkM+RMXiGX5zKBdOwnYpsOCVLl06RXHkZ8mSRfLmzZsin2+iTyDYGEe/ZbbgSyCj+lfKn1K+NfI1CZBAhgnA9+jo0aMZut/tu/ljWY5JNPoTCksk0pNPPhmJaqJeBxQCKHWwtoWr2EEoWPr8FTubT8Uu6sMWsAFa7gJicU0mlTvXDBUFdQsBHLN03XXXebe+SEtuRAeuWLFCN3p94403tGikdvPHdhHYdgJLgxn9FQ7LiZXLtx9YboNflH/as2ePLsv554d6DyUIMsKxHltjPPPMM6FuCXh9zJgxcV+mszLAV6x27doBo0gDCs9MEnAQAUbLOmgwMiAKlbsMQOMtJJAWgXHjxslVV12lPkRplcM1+CldfPHFsnfvXnnooYdCFU/3dSyPFShQQL744ot0WVJsQ8Hkgs/VSy+9ZItF7BnyYsNa+F1lJCGC0v9c04zUczr3WBlwQsUtt9yiG/meTn28lwRIgATSS4DKXXqJsTwJhCAwYsQI3c8Le3PdeuutWhrKFTZs3blzp76H1Wvz5s2C5TZsaIsIQOwThh38kYLt5v/aa68FVBbS2s3/zz//1O03oDjhaChsJItlM5wDivuQnn32Wc3HRrRwbLe/2v3l0sLmz7p16wSyIH377bd69BROE8AebqESrIHgcuaZZ+p9sFz6Jii88+bN06xApxfgaCvI2b9/f5UVTvnfffedOuDjuK9mzZqpsuxbJ8bimmuu0RMPEOhw5MiRoPWDEyIFIV/lypUFMiBBUcN4oZ9Qej///HOVA7wQ6Yl+wVrqKwOU1OHDhyt3rYR/SMAlBBgt65KBCiam+UcWMrUfviBkGRYgAbcQMJ+FsEQNt5xvZcbPDgFKHrPM6DEKmr42ypXHHKukrydPnuwxEYEe40fkMb5pHrM/mOezzz7zfPnll5pnfPU8U6dO1bLvvvuu55tvvvGYiEGP2RRXmzFKimfatGm+TXrM8p/ea3br95ijnjzGEugxu/d7jBLnMcqIZ9euXVqf8eXzvP/++x5jVfSYEwU85nB7zTdbT3i6d+/uMb5SHnOKgGf27Nmab6IQU8jl2yhkNEvPmmWWHj3m1AWt0xwrpff6lvV/bSx+HqOAeYyC5Hn99dc9V199tccobHofmECWIUOGaF/Aafny5R6z7YVygMy2P2YzW4/ZasNjTjvw9OrVy3P48GGP2XpEeaKvNqFO1AM+GJPrr7/eM3PmzKD1YyzAwijdHqOU672Qr2rVqh6zx5pn7ty5OnYYF7Pdh8cot54bbrjBY05XSCUD5MB8WLZsmRUn1XO48yzccqkaiEKGk2SJRPeMK4XHuAREoqqEqSPRxtitA5NR/YuWOzODmUggUgRgQYIDOBzEixYtKkYhUAvPwoULpVOnTvLpp5/K0qVLpWXLlrqRq20XViIk+wyndOzmjw1b7W7+uA6Ln7Xu4T2SUX68u/nDIgcrFe4LlLAvWKlSpfQUAJztiXas5eyuu+7SLSeM8qOb7mKDWSuPffavE1Y07Dc2YMAAlcEoWf5FUr03iqF07dpVl4vR5quvvhowehlWRXt6Aayc9vQCWyGWP4sVKybYKw3WTyyDIkFWX2f+rFmzSs2aNdWqhg11hw0bJkYZU6tloPqN4qfLwnDwv+KKK3R/NdSBBGsGtuTA6QhoEz6CGE9Y82Bt9JcBcmCJ/ueff9b7k+0PrMOYn8F8NMPhAa44uiyaCS4R1hKd3nasjyXusz60weqYNWuW1KvHnSeC8WF+5AhQuYscS9ZEAgJlB7vp24QlQpx/iQ1Ye/fuLcbqo2diNm7c2BYJ+BxoN/+ABU0mjnEKtpu//z3Gaqg7/dsTAbC0ieViJOxV5psQtRsqIYACCQotkv95qprp9wcKsC2Hvc/svX7Fgp5eYMvZEwuwVUaoNGnSJOWP5eSKFSuqAhzsdAQobb4y4bVV7rAEi4Rlc+RbjvhSD7aMBTmtrKHkTMTrxmKiy+8Z9dGcMGGC9weIE/lYH0vIZn1onShnemVitGx6iTmrPJU7Z40HpXE5AVh74HMF/yskWHmee+453agVZ2UignL8+PHeMzN9uwufOygLaSUoRmapNkWRtHbzT1HQvIE1EMoQNn+F9RBWM8iUVkpLLig1OHoKlhl8idujplAf5MSB8v4Jh8LjSxBRxWaJWWXytbTZ8sFOL7DXgz379weRuAhaASf4z3Xr1k0tl8Hqv/HGG3UzXvgqQgHEuMHK6Zus9QXPXbp0UYZQ4m3ylQE+ifDdS5rc/foAAEAASURBVOSEsQ/kp2j77OujCb9THDEGRRmfDztHMB7w9cScgiUUllvMJ8wt5BtXA1udPgfy3cSYwQdz8ODBaq1FwUB+m/jhgk2W0Q6Cg9auXeutO5AvJX60hePnaX1o8ZmBHyb6CHl8Pxe2oWB+oPZ6vJ/BnMm9BKjcuXfsKLkDCZQsWVKXOn/44QeVDmdrwsJjD0DH2ZnXXnut5M+fP4X0JUqU0OOb7M7/gXbzxw3YluSFF15IcW+w3fxRyF9pwjFPCAbAcibuw5crls78y+IgeMjgL5cW/P8fKyO+JBEggfqwRGkTlj8RXOKfsCSLLzsc+o7lMCi/Nll58Rzs9AJb1j7be/AenI0PoFiLIvLAGsoE2kNfcTA9loOD1Q8lEJY2LFlj/Iz/ny4hoy7bFqyzsEShPfQbZWDBQfKVAfsdQtnH8m8iJyhHo0ePlvXr18vYsWN1OxvfPf7wGkvrSFC8zjnnHD1qDG4LmINQtvBjABZuuC4gEAXKBSzfcBNAEFCtWrVSIERUOgJjYI3GDwaUwY8j1PH111/rEWVQzrG1zltvveV9vPfee2J8IPWHDfJxH1wLbEIQEVwokId5BFcD7N24atUqPW3jq6++0jHH8WqQEUfM4QcbotKhxP71118ycuRI3QoJij3mN+pDHTbhhw0CdGAdgyz4YbBo0SJ7mc8kcPoEwnEyzKhDXzh1swwJxJqA+dSE1WS45fwrM8qXx2zn4Z8d8r35YvKYX/whywUrgCAOBG+EkxBYYPa/C6eoOpqHkgttG7+yFPUhUOT5559PkWffwIEdMoSTUDeCG8JJCGBA8EOghPaMIpDqUrD6jYVJAydS3eCTYSx0HqO0pCjnK4OxGmmwic8tqV6GO8/CLZeqgShk+MtirHYeo9x6WwITzEUEoRiFX4OEEIADXubHjscoRRpMY44Q04ATjC+Ci4xvqtaxZcsWzceb22+/3WOUJW/d9oX5kaTBLXiP+WQUKw+CgCAbxg7J/LhQGRC4gweCaYyi5TFRzRqEo4XMHwTEmPNqPUZx0/tteRtoZIN4jDKpt2Bcmzdvrq8RxGN8MPW1DZBCEA+CmtB+hw4dtE58hhDIU7duXS2LNsEHAUYIcHJaMoqn00RKSnkyqn/Rcmf+EzCRQCQJwDKFJSQs5aQnwRJmfdHSc58tC787WAnDSQj2gMUhnBSOXGgbVkvfhP3mYLEIlLA0DBnCSagby93hJFjW/K2i9j60V8oEk/inYPWfe+65Xl87/3vse5ybimVE65OHfCsDrDNw0kewSaKntPwUffuOZVMsWebIkUOtbGAF14B8+fJpMev3aa3Cvvf6v07LdxOWQaRgfpVYGrZlUM5+bkL5UlrfyVB+ntg8HP8HMAfg/hAoBfIDDVQuXnn0uYsX+ci0S+UuMhxZCwl4CWDJDlFxdgnPeyHJXuBLLZiilQwo8MWOJUAs1yV6CsdPEQzAomHDhrqsCeXnkksukaFDh6YK5vHlhc8R9mf0T+H4bgbzq0TEOXz6jNVWjFVOP6+oP5Qvpb8M9r2vjyXyEHGNACqzRVBAP1q0G8gP1NbHZxI4XQL/xvefbi28nwRIIAUB+GsxJTcBWHkS3dfOjjD8FM2ypvop4sdNID9Fa43DRtcIaunXr5/6IyIaFpY8JPuDyD4jD1sBIQAIgTvwv7MJyiH8G+HrByscfP1ssvf7+lXCPw8KFaypkMW4DKgfJqx2CHjBPb6+lFZh8w/kQBu2fry2PpZmv0i81QQ/PwTawC/TBh3BEmZ9an39QOF3iB8C2CLISYmWOyeNRvplyYRF7FC3dRixUMZ35948oTjxujsI4B9zGNNe/4GHU84dvaaUTiXgxvkYTGYsxUPR8l2mDsYdQUcIRgnHFQGBKSjnvxyKAAqcnRxqiR+RtbCW+S7vI4gDwRhYfrf7E1pZEfyApWZE04bqC/5HoH5/KzWWn2FxLFiwoAZTQLn03y8Sy8NQIksFcBewsvA5uQlkVP+i5S655w17TwIkkEQEoHCYU1KC+kKeLgooSuGmsmXLhlvU65Pnf0O4vpvwq8TDN8F6B+UtULK+lIGu+edB0fVX7FAGFkHry4f68PBPoZRS//J8TwLhEqDPXbikWI4ESIAEXEoASh32oYNVDcuF2PiaiQTSIhBsU+607uE15xCgcuecsaAkJEACJBBRAlapQ2Q0fMywTGj92yLaECtLOAL0uXP3kHJZ1t3jR+lJgARIIBUBKHXYRPqZZ55RP7WjR4+mKsMMEiCBxCVA5S5xx5Y9IwESSDAC8O8KJ+GoLJzUgChM/4RggdN14McpIEyJTYCWO3ePL5dl3T1+lJ4ESCCJCCAyM9QDOObOnSsDBw7UY9TsxsAWExz7zWkiIetJqx0cEcaU2ARwtBqTewlQuXPv2FFyEiABEghIAFGa+HLGubY4vxd+dv5KXsAbmUkCJJAQBKjcJcQwshMkQAIkkJqAVfL27NnjVfICnfaQ+k7mJDsBRsu6ewZQuXP3+FF6EiABEghJwFfJGzlyZKpzgENWwAJJR4A+d+4ecip37h4/Sk8CJEACYROAktepU6ewy7MgCZCAOwlQuXPnuFFqEiABEiABEogaAVruooY2JhVTuYsJZjZCAiRAAiRAAu4hwGhZ94xVIEmp3AWiwjwSIAESIAESIAEScCkBKncuHTiKTQIkQAIkQALRIsBo2WiRjU29VO5iw5mtkAAJkAAJkIBrCNDnzjVDFVBQKncBsTCTBEiABEiABEiABNxJgMqdO8eNUpMACZAACZBA1AjQchc1tDGpmMpdTDCzERIgARIgARJwDwFGy7pnrAJJSuUuEBXmkQAJkAAJkAAJkIBLCVC5c+nAUWwSIAESIAESiBYBRstGi2xs6qVyFxvObIUESIAESIAEXEOAPneuGaqAglK5C4iFmSRAAiRAAiRAAiTgTgJU7tw5bpSaBEiABEiABKJGgJa7qKGNScVU7mKCmY2QAAmQAAmQgHsIMFrWPWMVSFIqd4GoMI8ESIAESIAESIAEXEqAyp1LB45ikwAJkAAJkEC0CDBaNlpkY1MvlbvYcGYrJEACJEACJOAaAvS5c81QBRSUyl1ALMwkARIgARIgARIgAXcSoHLnznGj1CRAAiRAAiQQNQK03EUNbUwqpnIXE8xshARIgARIgATcQ4DRsu4Zq0CSUrkLRIV5JOACAoULF5alS5dKgwYNxPdXdr9+/SRTpkxy7Ngx7cXOnTv1/fPPP6/PuOb/+Pnnnx3f43nz5smGDRvSlLNr164yevToNMvwIgmQAAkkOgEqd4k+wuxfQhPweDxSt25dWbJkibef06ZN09eff/659zlv3rzSrVs3+eOPP/TRsGFDeeKJJ7zvS5Qo4b3fqS8mTJggK1asSFM88MCDiQRI4PQIMFr29PjF+24qd/EeAbZPAqdJoHbt2rJ48WI5fvy4bNu2Tb7//nvp0aOHLFiwQGv+7LPP5KabbpKcOXNK/vz59ZE9e3bJlSuX933mzCn/FXz44YdSvXp1gXXw1ltvlcOHD2td06dPlzJlymh+z549VZE6cOCAljnzzDOlTp06XgUMyqWto2PHjoJySHPmzJFrrrlG63nxxRflyJEjamXs0qWL1tuuXTtZs2aNlrV/PvjgA4FMWCpCvzZv3iw1a9YUtHnXXXfJpk2bbFHvM5TX2267TU6cOCGBZIGiC/n69++v7VarVk2+++477/18QQLJTMB3NSCZObi17yn/o7u1F5SbBJKYwGWXXaa9X7dunSxcuFCaN28uTZs2lVmzZmk+lm5h3Qs3QRlq2bKlPPnkk/LDDz+oYjd27FhVkqAsvfHGG6p8oa1FixbJuHHjVEHbunWrtGnTRvr06aNNtW3bVjp16qSK5549e6RXr15y8uRJueWWW3QZedmyZTJ//nytA8oblNKffvpJFVEop76pWbNmcv3112vdtWrVEiw9Qxn75ptv5KyzztK6bXlY7vr27SsfffSRvPTSS5ItWzYJJAv6uWrVKr3+1VdfSZEiRWTUqFG2Gj6TAAmQgGsJZHWt5BScBEhACUB5gfID6xSWLaEE1ahRQ6CwbNmyRVavXi2w7oWbUN+vv/6qS72wrK1du1YuuugiWb58uVxwwQVSv359rQoWOPjuYflm4MCBUqBAAbWiXXXVVdo2FLVTp06pXyCsfbC8Zc2aVS1uUL6gKA4bNkzr/OKLL1TJg9IGH0L41/kmWBrPOOMMyZ07tyqSUNxgCcyXL588/fTTkiNHDtm1a5feMmjQIPn9999l48aNcvbZZ6v8gWTBfUgPP/ywWjVbtGghM2bM0Dz+IYFkJ0DLnbtnAC137h4/Sp9EBGBlQlCETVjOzJIli7697rrr1GoHa129evVUWYH17qmnnpLzzz9fSpUqZW8L+bx//36pXLmyYDkX92KpFemXX35RK5mtAMoWlnqxlJknTx7NxvIu/Pt27Nihz1Du8KhQoYIqgSg0adIk6d27t8DSWLFiRV2mhRXOWs/wpZKWMgrFDQmKHhLqR4KiiVSpUiW1IEJpQ0pLFlxHH5AsS33DPySQ5AQYLevuCUDlzt3jR+mTiAB85AYPHqz+aYgaPXTokCpfQAD/M1izzjnnHG8eLHhYMm3UqFG6KNlAjNdee01gzYJ/GxLqwTIqll/h3wcLHqyCWIqdMmWKLrkimAM+c9a6B0UTvnQoj3uhOF588cVa19tvv61BHggGwRIwrg8YMECXk1EvfOJ8E5Q3RACXLVtWFTj0F+n9998XWAvhH4iEJdiXX35Zl4MnTpyoyi7y/WVBHhMJkAAJJCIBLssm4qiyTwlJAEoRlDgocFDs4M9WtGhR7SssbbCYIXDCJl8Fy+b5PltLl28eXsNSV65cOVWioJQhshbK0p133qm+bLDmFSpUSJd/sYRasmRJVeawBQlkG2v882DVg78bZEAdSAiEQEBHq1atdLm0atWqqhBOnTpVrW8oO2bMGM2D1QBLqr4JS82dO3eW8uXLqxUQ9UAOWPKwRIyEPuFRsGBBeeWVV7Q8rJqBZPGt297rn8f3JJCsBOBuQeude0c/k3E+DrlvQIcRC2V893ru7SUlJwEfAvjyD2Paq5KQVjkoWAgEgNITy4R96+CDBgUmmgl+d1Ae4ScHixv827DsCl83LGFCmbQJS6O7d+/2Kps2H0EL8HeDzx3qsQl9gNJXyme5GMEWiHqFZQ7KYaB08OBBXQJG+3/99ZcuuaIO+NyFSsFkCXVftK9Haj5aOcOtz5bnMwkEIsB5FIhK7PMyqn9xWTb2Y8UWXU4ASh1+1RYrVkxWrlwZ895A4Yq2YodOYe87q5DB4ma3S0F0qq9ih7JQtqwVEe9tQnAG/O1sPTYfZX0VO+SjDAI3gil2KAMF0/rGwc8PdYej2OHeYLLgGhMJkAAJJBIBKneJNJrsS1QJ+Cp1cNKHbxq3zogqclZOAiQQJwIIbGJyLwEqd+4dO0oeIwJWqStevLguA0Kpe/PNNzXSM0YisBkSIAESiCkB+tvFFHfEG6NyF3GkrDCRCGD5FUrd9u3bdcNbKnWJNLrsCwmQAAkkJgEqd4k5ruxVhAhgmw2caQoFD/unwckYCp9NeI085pMD5kR654OdR3wmAacR8P0/5zTZKE9oAoyWDc2IJRKMQLhRYCgHvxOcotC6dWvBWarYdJeJBCJJID3zMdx204ryDrcOlktuAuHOy+SmFP3eM1o2+ozZQhISgN8JlmRhucNGuXfffXfAQ+qTEA27HAcCUNrCecRBNDZJAiTgIAJclnXQYFAUZxLAth9U8pw5NpSKBEggOgQYLRsdrrGqlcpdrEizHdcT8FfyrrzySrXkub5j7AAJkAAJ+BFgtKwfEJe9pXLnsgGjuPEnYJU87HVXvXr1+AtECUiABEiABEjAhwCVOx8YfEkC6SEAJS/WR4+lRz6WdQ8BOK+HerinN5Q0EQgwWtbdo0jlzt3jR+lJgARcTiBQgAS6FCzf5d2l+C4hQJ87lwxUEDGp3AUBw2wSIAESIAESIAEScCMBKnduHDXKTAIkkNAEaDVJ6OF1Rec4B10xTEGFpHIXFA0vkAAJkEB8CDBSMT7c2ep/BDgH/2PhxldU7tw4apSZBEiABEiABEiABIIQoHIXBAyzSYAESCBeBBipGC/ybNcS4By0JNz5TOXOneNGqUmABBKYAP2dEnhwXdI1zkGXDFQQMancBQHDbBIgARIgARIgARJwIwEqd24cNcpMAiSQ0ARoNUno4XVF5zgHXTFMQYWkchcUDS+QAAmQQHwIMFIxPtzZ6n8EOAf/Y+HGV1Tu3DhqlJkESIAESIAESIAEghCgchcEDLNJgARIIF4EGKkYL/Js1xLgHLQk3PlM5c6d40apSYAEEpgA/Z0SeHBd0jXOQZcMVBAxqdwFAcNsEiABEiABEiABEnAjASp3bhw1ykwCJJDQBGg1SejhdUXnOAddMUxBhaRyFxQNL5AACZBAfAgwUjE+3NnqfwQ4B/9j4cZXVO7cOGqUmQRIgARIgARIgASCEKByFwQMs0mABEggXgQYqRgv8mzXEuActCTc+Uzlzp3jRqlJgAQSmAD9nRJ4cF3SNc5BlwxUEDGp3AUBw2wSIAESIAESIAEScCMBKnduHDXKTAIkkNAEaDVJ6OF1Rec4B10xTEGFpHIXFA0vkAAJkEB8CDBSMT7c2ep/BDgH/2PhxldU7tw4apSZBEiABEiABEiABIIQoHIXBAyzSYAESCBeBBipGC/ybNcS4By0JNz5TOXOneNGqUmABBKYAP2dEnhwXdI1zkGXDFQQMancBQHDbBIgARIgARIgARJwIwEqd24cNcpMAiSQ0ARoNUno4XVF5zgHXTFMQYWkchcUDS+QAAmQQHwIMFIxPtzZ6n8EOAf/Y+HGV1Tu3DhqlJkESIAESIAESIAEghCgchcEDLNJgARIIF4EGKkYL/Js1xLgHLQk3PmcyWNSKNGHfPiVfLt9f6hivE4CJEACJEACJJAABN59oL60H74gAXri7i5UKp5f+reomu5OhKXcpbtW3kACDiaQKVMmCeM3jYRbzsFdpWguJcC559KBSyCxOQfdPZhclnX3+FF6EiCBBCTASMUEHFSXdYlz0GUD5icuLXd+QPg28QmE+4s03HKJT4w9JAESIAEScBMBWu7cNFqUlQRIgARIgARIgARCEKByFwIQL5MACZBArAkwUjHWxNmePwHOQX8i7nrPZVl3jReljQCBcJdbwy0XAZFYBQmkIMC5lwIH38SBAOdgHKBHsEla7iIIk1WRAAmQAAmQAAmQQLwJULmL9wiwfRIgARLwI8BIRT8gfBtzApyDMUce0Qa5LBtRnKzMDQTCXW4It5wb+kwZSYAESIAEkocALXfJM9bsKQmQAAmQAAmQQBIQoHKXBIPMLpIACbiLACMV3TVeiSgt56C7R5XLsu4eP0qfAQLhLreGWy4DIvAWEkiTAOdemnh4MQYEOAdjADmKTdByF0W4rJoESIAESIAESIAEYk2Ayl2sibM9EiABEghBgJGKIQDxctQJcA5GHXFUG+CybFTxsnInEgh3uSHcck7sI2UiARIgARJIXgK03CXv2LPnJEACJEACJEACCUiAyl0CDiq7RAIk4G4CjFR09/glgvScg+4eRS7Lunv8KH0GCIS73BpuuQyIwFtIIE0CnHtp4uHFGBDgHIwB5Cg2QctdFOGyahIgARIgARIgARKINQEqd7EmzvZIgARIIAQBRiqGAMTLUSfAORh1xFFtgMuyUcXLyp1IINzlhnDLObGPlIkESIAESCB5CdByl7xjz56TAAmQAAmQAAkkIIGwLHdPTP5Stuw6kIDdZ5fSQ6BA7pyy7/DR9NzCsiRAAiRAAi4ksGHOO3Lx9be5UPLEFLlS8fzSv0XVsDuXNZySUOz6t6kVTlGWSWACQyYukfHd67m+h+Eut4ZbzvVA2AHHEeDcc9yQJJ1AmR6oL+vnjEu6fju1wx1GLEyXaFyWTRcuFiYBEiABEiABEiABZxOgcufs8aF0JEACSUiAkYpJOOgO6zLnoMMGJJ3iULlLJzAWJwESIIFoE3j00Uej3QTrJ4E0CXAOponH8Rep3Dl+iCggCZAACZAACZAACYRPgMpd+KxYkgRIgARiQoDnesYEMxtJgwDnYBpwXHCJyp0LBokikgAJJBcB+jsl13g7sbecg04clfBlonIXPiuWJAESIAESIAESIAHHE6By5/ghooAkQALJRoBWk2Qbcef1l3PQeWOSHomo3KWHFsuSAAmQQAwIMFIxBpDZRJoEOAfTxOP4i1TuHD9EFJAESIAESIAESIAEwidA5S58VixJAiRAAjEhwEjFmGBmI2kQ4BxMA44LLlG5c8EgUUQSIIHkIkB/p+Qabyf2lnPQiaMSvkxxU+6O/n1Yjhz5O3xJWZIESIAESIAESIAESCAkgZgod1t/2CwPd7tT7m59vUx5d7Qc+vOg/PTj99L33g4BBfxj3x6pXDhbikfDahVk8rg3A5aPVeafBw/EXYZY9ZXtkAAJxI8ArSbxY8+W/yXAOejumRB15e6ff/6R25vVk7+MQte2U1eZPmm8jHxhsFS66FL5669DsmLx/KAE537xnXy59YCs/H6P3H5Pd3m8z32y+7ftQctH+8KBP/bKC0/0i3YzrJ8ESCAdBKZPny6ZMmVK8bjssstkxYoV6agl8kXnzZsnGzZsCFrxpEmTVOYZM2Z4y+zYsUPz8MVq+3TbbbfJ1q1btcywYcPkpptu8pbnCxKIFgFGy0aLbGzqjbpy9/OP38nRo0dk+NgpUqdhU7nj3h4yc+r72rubO3SSd0e9ErSnZ+TOIzlz5ZYz850lN7S8Vcv9sXevPk+bOFYa16gssOi9+dLTAiUSDyiONSsXkztbNpD+998hs6dNlH17dsvN9at520He60Of1PcbvvpC2ja+Ru8Z0L2TwDqHtHzRJ9K+aS2tf9zrL2kfHjKWxsNGIe1+e0stY/+sWbVMBvW4W3rf005efPJhOX78mAx9vJ/Uu6S0trtozkda9NetP0j3jjdrW7j++287NH/J/FnaF8j9yrOPycGD+zX//g7NZcumr/U1rJ9d2zXT173vvlXeGPaUyrbfKJyoHxxw/3OP9BaPxxNUBq2Af0ggwQiUL1/e/Fj8Sx+///67VKpUSTp0CLwyEKuuT5gwIU0F8+2335ZChQrJu+++m0qkbdu2aV9+/fVX2bJli7z88sveMvg/x0QCJEACaRGIunJXsnQ5WbTuZ/0VeuLEcZn54fvS8MZWKtP55SrKkgWz5dixowFlXDT7I5n78RRj7Rsngx64Wy685HIpX/FC2bVzmwwZ0FOeemmUPDl8lEydMM4ojBPk63VrzLLvWzJywgzp1u9xmfHBe3Lgj31y8uQJ+XbjWm8byPt992/6Hgpby3YdZez0BbJ/3155/tGH5NTJk9Lz7rZy/0OPyLszPpWVSxbKF8s/lUdfeE1y58krT7/ytrcuvPjbKHwfvj9WypS7QNp1uk8Wzp4uX36+XEZPmSMdjMWx2x2tZPsvP8noEc/JBZUuklkrv5UsWbLIhLdHyskTJwQydO01QN6ZsUg2rl0tU98bo/Vv+e5br1/i0SNH5cctmzX/l60/yqxpk+XR516R3Eb57Xd/R3ncyDZ5/ipZuWyRyhpMBq2Af0ggwQhkzZpVcufOrY9zzjlHbrnlFvnpp5/0B9+xY8ekT58+ct555wkserD0IR08eFDatWsnhQsXFljHGjVqJN999508+eSTMnbsWC2DP9WrV5ddu3bpeyhkFSpUkDJlyshTTz3lrb9Lly5aD+pbs2aNfPDBB/Lhhx8KrB8LFizw1mVfQHmbO3eujB8/Xsv+8ccf9pI+v/rqq9oXyNy2bVtZsmRJiuv+b9BfyA259pofwJ9//rnKjb517NhRDhz490fr0KFDVf6aNWvKlClTtBpwQP/PPPNMady4scDiiPTJJ59It27d9DX+9OzZU+bMmSNLly6VTp06ya233ir9+vXTuvEa99epU8er0AaTwVshXziaAKNlHT08IYXLGrLEaRbIYv7p5sl7pqz9YoU80fd+KXhOYRn49HCttUSp8/V5r1G0ipUonaql1SuXyRm5cslxo/x9s/4rqXjRJYL6Fhqlr2Tpsl6rVuky5WXNiqWy/eefpGGzVlK5ymVa13VNmqeq0zdj08Z1qnSdOnnK3L9MzjPyLJg1Xdu4/KprZegT/eXG1u2l7+DnpXTZCwSWNyT0xz+VNDJ06T1Is+cYxavoeSVl9WdL9X2Rc4vL2tUrpWz5ijL6lRc0r1aDG+Tiy6407S4xdVeQJi3bav69vQbKoz3vlTu79tb3wf7c3/cRqVH7Ovn8s8V6/1U162nRN9+fqYr0e31eDShD8ZL/Mg9WL/NJwI0EoNBAoULas2ePvPHGG/LQQw9J5syZZdq0abJs2TKZP3++rF69Wpo3by4//vijKl/79u2TlStXysKFC6Vz587y999/C5ZGc+bM6cWwatUqOWF+hEEhe+CBB1TBOWl+AN55551SokQJ/bx9//33qkzOnj1bevToIYsWLVLlqVq1alKrVi1vXfYFrHo333yzNGjQQM4//3yV5a677rKX5ZlnnpEaNWqoLC+99JLcfffd3muBXvzwww/y9ddfy8iRI+Wss85ShbB///5y9dVXK4devXrJgw8+KL1791blb+fOnarIQcl7//33BdbOr776SjnB4vnzzz+r0gZONiEPiiAsh2+99Zbgyx9K3rhx48yP0CO6dAyFEYr08uXLA8owZsy/P1xtnXx2LgG4BnBp1rnjE0qyzKEKROI6LFEPmOXIe3r0kzcnzZaChc/VarNky6bPOXL894/Ut72+g1+Qx4e+LkNeGSvDxkyUT+fNlH17f5ddO7ZLjjPOkFOeU/qo1bCxXHdjS9mx7RcpUrS4t4rs2QPXCwsd0u+7dqglztZTqlx5uc8oTUjDRk2Qjvf1lM1fr5cmV1+ky7R6IcifIucW817Z9utWQZ9svXf16CMXVK4i7Tp3l2deHSuHD/+lPF4e8oj8ZqyQBQoW8t4LK2OgdHD/vhTZBYySjPTb9l902dpezG64ZDNfTMFksOX4TAKJRADKBZQ3PGDlgq8brF5IEydOlFKlSmk+lLfixYurdQkWvK5du6pyBcUqb968aSJB+XLlyqkStXnzZrWAoS0sCUOZgxULSiEsX9mzZ5czzGcR1sRs//8/ZyuH28Sbb74pRYoUEfjbVaxYMYWl0JbDci2U0REjRqhSZvODPUPZgrK4ceNGVTRPnTqlVjZY8yATFFEsA0NRXLt2rVoY8R5KMRTSsmXLqpWvSpUqarUL1g7y0edHHnlEihUrJlOnTlWOBQoUEHCE1RGKIiyn/jKkVSevkQAJRI5A1JW7nUb5eMRYosZMnSd1Gt2ovmDwSUP6bfuvqlxZZS+tblW+uKpePmT80eobi9yfZpmhact20rzNHbJ+9SpjtftR6t9wkyxb+In+soTf2qqlC/WePHnz6fMPZpkTS8CL583S91deW1efq5vnNrffKyeOHTcBHgvU561Z7apydd2G8tSIMbrUutpYBpHgc4d/WGmlJq1u1WXX1u3vlgY3tJD3x7wux82SdNd2N0p288//oceek0HPviyfmWCSa+s20qXpndt+VtlmTpkg15l+IJ2V/2zZbKyLSAvn/Od0rRn//3N1nYayYskC2WEUSix739WyoXyzdo0Ek8H3Xr4mgUQhAEUOChMeCFR47rnn5PXXX9fuIRgBShc+t3jAogUFBr5sUE6QELwQKEEZtAmWOyhstp4mTZpIq1atBNY5KDNQ1mDtqF27tr0l4DMshbAuHjp0SK2KBQsWlM8++0ytifYGKIroByxdN9xwg2DZOVTCEiwSLI9QVK2cWEaG4odlU8hZr149mTx5ssoLix04QDGzCVbKQAllbYKCbBOWsvPkyaNvYSlF28FksPfw2fkEMJeZ3Esg6srd+jWrlM5NtS6RqiXy6uOaiv9a7rYZhezSK6oHpef7Dzer+fULf7cvV30mF116hVSvWVcaX1VRgwi2//qz3HhzB8HSZD4TfHFd1TLStMaFgoAMJNzXrHUHaVazijS+sqJa/ZCfM+cZ0u/JodKpZSOpdWFx9Ym7p0d/U0d+adikhdQoX0gDIlavXGr88u6Uc4uXECxrdmxRH7cHTTcapRN+fXWqlJSapt6ra9cXKKct29+pQREI7njBLPl2fWiQwAJ3uwkyue7ycnJtpaKyatmn0qLtHVp3m473aIQwAiW2mSVn32RiA/XtOYWKyF3dHpIGV5TXAI5yxicRy7XBZPCtIz2v9x48LOWKnJWeW1iWBOJGAAoXlmqR4AcHH1csu7Zs2VItS8ePH5f27dt7LVRYeoWyhXT22WfL+vXrja/uScEyq00tWrSQ/fv3633wY4OShmVL+LrBYjhgwACZNWuWWtvgQ4f/X/D3809Yxrz99tsF/nt4jDX+fVg+hYXRpr59+9qX6X6G8oaEZ/gCoq+QD75/8KG75557ZObMmWp9g2UQfNA2+guL5+LFi6Vu3brKAYoblmKhIEMBDZTatGmjS9C4H0vgqK9+/X//R/rLEOh+5jmTAJdknTku4UqVySwReEIV7jBiofRvk9pvJNR9oa5j7ztY2+oai15GEiJbYcnz99fD0i0UuiEDHpQKJoChrQlyQMLSZu48ZwoURd+EoIbtv/4k55Uso/529tqeXTvVGlb0vFI2618HarP5slUcvRcCvMD9mc0vbt9l178O/Wm2c9mhfnL4lWsTZD5ilmvRlm8+8pBCtQcW+AJDv31TIBl8r4f7euqSDVKtbAFpeGnJcG9xbDl86YYx7fXLOZxyju1okgiG5VIoVt988423x1BSYJ3btGmTWqyw/AplDNYnLEG++OKLGjwBn7Hffvs3uArLiLBsIVk/uSuuuEKXXBG1Cisf/NagCGEZ+OKLL1b/O/ivQZnJZfyDoeDAZw1Wj1GjRqlCCQXx+uuv13phCcRSLRQl+NTZ9NprrwmCHRCsAKsYlEj4zvknbIWCMjYoxF5HoMjw4cPlmmuu0Sz4xOHLGYodEhS7Cy64QAMe7JJ1yZIldVkYljtrbQSfwYMHy8CBA+XPP//UoIxvv/1WFUFYDwcNGqSWOcgBP0UkKIDoP5RABLNAWb322mvVL89fhosuukjv4R8SIIH0EYAeNr77vz/cwrkzbsodlhEHPXiPvGWWa6OVHu11bwrlLlrtJHq9q7/bLrv27pe+zS9NiK5SuUuIYUx3J6CEQUGBn5lv2r59u5x77rlSyvjlwQfu0ksv1QAKKDe+y5X2HkSeQvkqXbq0zVKlDook/NawdGsTFB4sWeKHV3oSllFP13KC5VUorPC5813WhTKXP39+wXKwTbYslpbz5fvXjQXX8OMGCp9d8rXl/Z+xBLx7924pWrRoiku2Xn8ZUhTiG0cSiMQcdGTHXCqUa5Q7WKoQdYVlxWilH7/fJLnMr+Rzi5WIVhMJXy+WY0fNWSPPtLtSihX4d5nb7Z2mcuf2EYyO/PDbs8pddFoIv9Zw52j4NbIkCaSPAOdg+nhFu3R6lbus0RYoWP2+S5XBypxufhmz9QjT6RFYsu5HaX9t2YRR7E6PBu9OZAJYboXljYkESIAE3E4gbsqd28Elg/xYjs2eNVNC+Nklw3ixj6dHAEENTknw2WMigVgQgIUuWPK/Rh/kYKScl/+fR7/zZKNEcSSA5dgFa43Vrma5OErBpkkgOQmcrr9dclJjrzNKAEpbqEdG6+Z98SFA5S4+3B3fKpdjHT9EFJAESIAESIAEAhKgchcQS3Jncjk2ucefvY8/AUQqMpEACZBARglQucsouQS9j8uxCTqw7JarCNDnzlXDRWFJwHEEqNw5bkjiKxCXY+PLn62TAAmQAAmQwOkSoHJ3ugQT6H4sx+ZgdGwCjSi74lYCtNy5deTiLzfOI7ZH6cVfGkoQLwJU7uJF3mHt2uXYdoyOddjIUJxkJMBo2WQc9dPv8y+//KLnCeMYOPhtUsk7faZurYHKnVtHLsJyczk2wkBZHQmQAAnEgUCOHDnk2LFj8vzzz+tZv1Ty4jAIDmiSyp0DBiHeInA5Nt4jwPZJICUBRsum5MF36Sdw+PBhr5KH85Sp5KWfoZvvyGQ2LvSE6kCPMZ/JvsNHQxXjdZcSKFfkLOlUr0LSHDHmf2Yi/unRx8mlk5dikwAJpCBgLXcpMs2brFmzyhVXXCErVqxIccn//2GKiz5vwi3ncwtfRpBAVM6WhWI3vnu9CIrJqkjAOQTg3xTIx4n/zJwzRskmCedeso14ZPoLn7sLL7xQLXa2xty5c8upU6ekX79+0rNnT5vN5wQnwLNlE3yA2T0SIAH3EaAl2X1j5jSJrVL30EMPqVKXN29ep4lIeaJIgMpdFOGyahIgARLICIFAluSM1MN7ko8AgimwNEulLvnG3rfHVO58afA1CZAACZAACbiUQMmSJWXkyJHSunVroaXOpYMYIbEZLRshkKyGBEjAeQQOHjwoR49mLBjsn3/+kZMnT8alU26MlgWr/fv3x4UXG/2PQKdOnajY/YcjaV9RuUvaoWfHSSCxCUDZuO666wQKXqhUoUIFjSI8cOCAvPHG/9o7F2Cbqj+OL4mQPPMINV4JhZIRakIZjzIUyitmSCZmVNOD8UiNpDJRSVIxyHiNt5JBXkmRiiGvRqiJ8kgPhqLy913997XPufe61z2vvfb5rJnr7LPOXmv91ue3uF+/31r7vGNvX7RokWnXrl1OTRPyeTz33K1YscJs27btonb279/fTJo06aL35PThmTNnTLNmzXhwbk6g+BwCSSCAuEsCZIaAAASST2DatGmmUaNGply5cjkOPm/ePFO3bl1z7Ngxu1cpxwYO3TBz5sxMj7+INl9PxMrFU7Gim0W8L1KkiOncubMZPXp0RD1vIACB5BNA3CWfOSNCAAJJIDBu3DjTvXt3s2zZMtO1a1c74hdffGHq1atnDh06ZN+3bt3a7N6924wcOdLs27fPdOvWzUae7rvvPvv5wYMHja6LFStm9zGdOnXK1k+YMCFLEbNgwQLTuHFjKyg1ph4kq6IoYLVq1Wy9HkchIaUooe5R382bN88QYJs2bTKVKlWy9/bq1cvepz40jzvuuMP289prr5nTp0/bR17069fP3qu5fvnll7o1o8ydO9fIJh3Q+Pjjj+1c77zzTjtmnz59zK5duzLu9S5GjBhhevbsac6ePWtkizcfz5bjx4/busGDB9txGzZsaPbs2WObq90bb7wR8SgOr19eIQCB5BFA3CWPNSNBAAJJIqATg0pFKt0qMTd79mwr2iRwVL9hwwZz4MABK6iqV69utm7dak6ePGkmTpxo9yu9//771lLd+8ADD5iNGzear776yqxevdrWV61a1dSoUSNiNhJDHTt2tEJx7969VthNnTrViiSJHqV7Jb5WrVpl+1FkUQJt//79pkuXLmbgwIG2PwlMibG1a9eao0ePmqeeesru/VNUTOna9evXm5UrV9o+JN6+/fZbK0wlQp944okIm9q3b2/atGlj+27atKl91pnE2I4dO0yJEiVs314DCc5BgwaZxYsXm9dff90UKFDAil3t4fLbonmKhz7/+uuvTfny5c17771nu6lYsaLlvHnzZq9bXiEAgRQQ4LRsCqAzJAQgkFgCiiTptKAEjH7q169vo1ASVhIra9asscJKYkxP7veKomgq3qsiaIqIqTRp0sToIbEqivhFF4mdH374waxbt84osrZlyxZTp04d8+mnn5qaNWuaFi1a2CaKwOkhxTo0MWzYMFO6dGmjKJpSyBJLiiDqobOffPKJjdIp8iYbFXGT+JJQHDt2rO1TkUgJTj2gtmXLlkb76/ylYMGCpnDhwkbPPJOQlHBTxLB48eJm1KhR9pEZP//8s23y7LPPmiNHjpjt27ebUqVKWfuzskXtVIYMGWIKFSpkOnToYJYsWWLrNC/NQ8JZUUYKBCCQGgJE7lLDnVEhAIEEElDqUKLGK4pgKdqliNLTTz9tli9fbtOU99xzj3dLlq8SZ16RwLrYvjSdFL3xxhttVFCRPaVaVSQIJTC9IrskiiRAixYtaqsvu+wyK0aVBpYo/eCDD6zAU+TROzk7Z84ca7uijLVq1bJpWkXhvOiZono60JBdkXBTkdBTkYBUkSBTqV27to0gSrSpeLboPv34bdHnmoNK/vz57av3h+q9z7w6XiEAgeQSQNwllzejQQACSSBQpUoVG4VSlEpFUS1t9Ff0TFE0neycPn16RjTNb9KJEycyhI+/3n8tYabUpr9of5qK9uMpmqW9fCqK8klYKv2qcWWDRKZSsTrIoVO9CxcutBFCL7q3dOlSo710ul9tJRx14EN9TZkyxQwYMMBGCLVXUJ8PHTrUqI36lbD1F4k3pamVfpaAU/ROZdasWREHTpQOfvPNN20KVmnsu+/+7ysn9eq3xd93Vtc7d+60Ijerz6iDAASSQ+BCPiI54zEKBCAAgYQT0MNclVLV3rcGDRrYH0XEPPHUtm1bK85KliwZYct1111nvKib9q8pouYvXpRL++ckuCS0vKJI3fXXX29FlERZq1atrFjq3bu3Taeq37Jly9o9cBKbslH26BEkZcqUMVPP789TVE/73ZQ61l42Fe0TlJ2dOnWy6VKlmCUI58+fb0Wo+pg8ebKt0149pVT9Renkvn372j2CigKqH9mhSJ5SxCqal36uvvpqM378eHu/HiMjW9S/5qMiW6KLx0T1euyM+hUHCgQgkDoC+c6nGc7lNHyPcavM9Mf++19cTvfyOQSCTkC/jHKx7O0vu9zcF/T5pqt9Y8aMsadi9XopRQ8v1qlYL2V6KW11r/bdVahQwe6TkwDU/jaJREURlcL0f3OA0p2HDx+29/vHGT58uI3k6YStf0+gTvlKaFWuXDnjdgk9nXpVZM6fis644fyFRJfmo/F1cEQpV/Whr6nKqegAhfbeRduSVTsJVB1C0Z5AihsE+PfQDT9dqg5D3LnhV6yMIwH+MYsjzAB3pQME2tyvwxPR0awAm+2saRKZihIqGqhDIhQ3CPDvoRt+ulRxF5lzcGOOWAkBCEAgRwKKYmkfmn55URJPQOJuxowZCLvEo2YECORIAHGXIyJugAAEXCWgfXfR++pcmIt3QtYFWz0bdUKWvXYeDV4hkFoCiLvU8md0CEAAApkI6LEmFAhAAAJ5JYC4yys52kEAAhCAAAQgAIEAEkDcBdApmAQBCKQ3ASJ36e1/Zg+BWAkg7mIlSHsIQAACcSag59VRIAABCOSVAOIur+RoBwEIQAACEIAABAJIAHEXQKdgEgQgkN4EXDwtm94eY/YQCBYBxF2w/IE1EIAABAx77lgEEIBALAQQd7HQoy0EIAABCEAAAhAIGAHEXcAcgjkQgAAEiNyxBiAAgVgIIO5ioUdbCEAAAgkgwGnZBEClSwikEQHEXRo5m6lCAAIQgAAEIBB+Aoi78PuYGUIAAo4R4LSsYw7DXAgEjADiLmAOwRwIQAAC7LljDUAAArEQQNzFQo+2EIAABCAAAQhAIGAEEHcBcwjmQAACECByxxqAAARiIYC4i4UebSEAAQgkgACnZRMAlS4hkEYEEHdp5GymCgEIQAACEIBA+Akg7sLvY2YIAQg4RoDTso45DHMhEDACiLuAOQRzIAABCLDnjjUAAQjEQgBxFws92kIAAhCAAAQgAIGAEUDcBcwhmAMBCECAyB1rAAIQiIUA4i4WerSFAAQgkAACnJZNAFS6hEAaEUDcpZGzmSoEIAABCEAAAuEngLgLv4+ZIQQg4BgBTss65jDMhUDACCDuAuYQzIEABCDAnjvWAAQgEAsBxF0s9GgLAQhAIAEEzp07l4Be6RICEEgXAoi7dPE084QABEJN4N9//zV///13qOfI5CAAgdwRQNzljhN3QQACjhNYtGiRyZcvX8TPrbfeaj777DPHZ/af+ZMnTzb9+/fPNJcFCxaYtm3bZqrPTYX6/OWXX3JzK/dAAAIBIoC4C5AzMAUCEEgsgRo1apiTJ0/anyNHjpjatWubHj16JHbQFPfetGlT88orr+TJiiFDhpiffvopT21pBAEIpI4A4i517BkZAhBIMoHLL7/cXHnllfanTJkypnPnzmbfvn1GKc2//vrLDBw40Fx77bVGET1F+lT27t1rOnToYMqVK2c/P3jwoK3/8MMPzQ033GDrhw8fbn799Vdb365dO7N9+3Z7vXv37oyomcYaOXKkqVatmjl27JjtX9fq98knnzTaZ5edDbaz//+h+9SP2tWrV8+8/fbbtq0+3rlzp2ncuLGdgwTdn3/+abZt22YUgVM5dOiQ6dSpk23bsmVLs2vXLlv/22+/ma5du5pixYqZ5s2b22jmoEGDjARw+/btrb32Rv6AAAScIHC5E1ZiJAQgAIE4EJComjt3ru3p6NGj5p133jHPPPOMueyyy8zChQvN+vXrzcqVK83mzZvN/fffb7777jvz8ssvWxE1ZcoUe/3WW28ZPaqkW7duVlg1aNDAPP7442bSpEm2rx07dphTp07ZMU6fPp0hoCQSv/nmG9tGArNnz55GKVMJRKVNV69ebWRTVjZUrVo1Y/ZbtmyxdsveM2fOmIcfftjccsst9vMNGzaYjz76yJQvX9506dLF3HTTTVYwSmSqvPDCC0ai9vPPPzfvvvuukcD7/vvvzbRp04xs3b9/v5k3b54VsStWrDBTp04106dPN6VLl7bt+QMCEHCDAOLODT9hJQQgEAcCEjASbyq///67jWr16dPHvp89e7apXLmyWbdunX1fqVIlG8FS6tZLa0qENWrUyKxdu9bUrFnTdO/e3d6ryN0jjzxixZ2tyOYPiUIJqjVr1tj2LVq0sHcuW7bM7gXs169fljb4xd2SJUtsKrlJkya2rcadM2eOTTHfddddpk2bNra+V69eRve2atXKvj979qyZMWOGjRKKgSKUP/74oxV38+fPN8OGDbMiTjw0x8KFC9t2iuZpryIFAhBwhwDizh1fYSkEIBAjAQkaRay8oqjbxIkTzYABA2zUqn79+uaff/6xHw8ePNhG7CTuFAFTJEvp2d69e9toW9myZb1ujIRTViX6MIJSqSqKlpUoUSKjiSekFDnLyoaMG//ftk6dOhlV/rErVqyYUV+wYEEbkfQq/vjjD3PixAlzxRVX2DlKsCkKWbx4cbNnzx5TtGhRe6uimFdddZXXjFcIQMBBAuy5c9BpmAwBCMSHQMOGDTP2kykKlz9/ftO3b1/TsWNHK3yU9rz33ntNoUKFzKuvvmomTJhgRZ6iY0uXLjUHDhyw+9oUEZPwU1EKc+vWrfZ68eLF9jX6j9atW9sIosScxlAET6ng7Gzwt9ceOKVzJdYOHz5s9+550brly5eb48ePG+2h0z2y3SuyS1E8pWx1qvbmm282Y8aMsfsPlcJVOlaPUlG6V3Z40TrZR4EABNwigLhzy19YCwEIxJFAyZIl7aEB7Ul76KGHrNBT9EsCSOlTHaxQmlLpWF3rwMVzzz2XcQiiSpUqRhG8VatW2YieTFNq9dFHH7X3aM+ev3iCSf3rwILSrYomKhKn8bKzwd+H7lNR2lj9XHPNNUYnYtW3ooGVz6eWNS9F6JSm9Relj8ePH29tu/322+3BDN0nsae9iKVKlbKp5dGjR9tmEp3NmjWzewH9/XANAQgEm0C+8yevcnwUeo9xq8z0x+4O9kywDgK5JKBfgrlY9vaX5cXuU4pLvxCVpqOEh4BOlOpUrT/tqiiZ9qdpn53Sll7RaVI9WkWCyl+vOhUv1endH/2qCJuihdFp0Kxs8LfVulRqV8JM4s5fdEJW6WAvRav9eDoUodO9XtHhDglDv31KRysSWKFCBe82+/dENkosUsJJIF7/HoaTTnBmdak67MK/UsGZA5ZAINAEJOq0MV6/PHXqkBIuAhI3fmGn2elQgfbe+QWc6nWfom/R9RJNfuGke7MqirRFCzvdl5UN/vb6hSxBGS3sdI9SyJ6w06NRFK3zTtN6fVSvXj2TfRKZfmGnezUOws6jxisE3CHAgQp3fIWlKSYgUTd27Fi7T0l7lDZt2mRq1aqVYqsYHgLZE1B0TtHlunXrZn8Tn0AAAqEjQOQudC5lQvEm4EXqtMdJD7CVqNOJS4RdvEnTn0dAkeF4FO2hQ9jFgyR9QMAtAkTu3PIX1iaZgH7JKlr34IMPmo0bN8ZN0Hl7+ZT2UvHee9MLSr1nl5d21Dc5+Euy6z17lEJU8R5b4tkUlHrPTu3dU9EpVH/JqX7o0KERbXK6/1L79+737CxQoIA1z/9YFVWkuj76pK4e76KS6nqPm/Y8quibRfwlKPWenUrVq2g/pr949f46rsNBgMhdOPzILBJEYNasWWbmzJn2ZKL2XEl0+aMqulbdpdRLEEmEjBgxIsNqXasuSPUSFPrlrm818IquVZeqev1y11dveUXX+kWqnyDV67l1L774omemvVZdkOqLFCliH4MyatSoDDt17X09WxDqX3rpJbsnUfsSde2VVNdrD6a+ucQrutbzAvUTpHrtl/QewC1bda266HpvHryGhwCnZcPjS2aSSwISYt7/aC/WRPc9//zzGZE7ff8nqdiLEeOzeBHQfxr0yBUKBBJN4FL+PczNv5uJtjdd++e0bLp6nnknhIB+weoRGNpvp69k0lc9eV+2npAB6RQC5wnoPxUUCCSLgAReTj/JsoVx4kOAtGx8ONJLiAkoJYTIC7GDmRoE0piAonFZ/QhJdH0aY3Ju6og751yGwakiEC3ybrvtNhvJS5U9jBteAkTuwutbV2bGGnTFU1nbibjLmgu1EMiWgCfy9FiUxo0bZ3sfH0AgrwTYb5dXcrSLFwHWYLxIpqYfxF1quDNqCAhI5PHVYyFwJFOAAAQgEDICiLuQOZTpQAAC7hPwP27H/dkwAxcJsAZd9NoFmxF3F1hwBQEIQCAQBNjvFAg3pLURrEG33Y+4c9t/WA8BCEAAAhCAAAQiCCDuInDwBgIQgEDqCRA1Sb0P0t0C1qDbKwBx57b/sB4CEAghAU4qhtCpjk2JNeiYw6LMRdxFAeEtBCAAAQhAAAIQcJkA4s5l72E7BCAQSgKcVAylW52aFGvQKXdlMhZxlwkJFRCAAARSS4D9Tqnlz+h8v7HrawBx57oHsR8CEIAABCAAAQj4CCDufDC4hAAEIBAEAkTuguCF9LaBNei2/xF3bvsP6yEAgRAS4KRiCJ3q2JRYg445LMpcxF0UEN5CAAIQgAAEIAABlwkg7lz2HrZDAAKhJMBJxVC61alJsQadclcmYxF3mZBQAQEIQCC1BNjvlFr+jM5pWdfXAOLOdQ9iPwQgAAEIQAACEPARQNz5YHAJAQhAIAgEiNwFwQvpbQNr0G3/I+7c9h/WQwACISTAScUQOtWxKbEGHXNYlLmIuyggvIUABCAAAQhAAAIuE0Dcuew9bIcABEJJgJOKoXSrU5NiDTrlrkzGIu4yIaECAhCAQGoJsN8ptfwZndOyrq8BxJ3rHsR+CEAAAhCAAAQg4COAuPPB4BICEIBAEAgQuQuCF9LbBtag2/5H3LntP6yHAARCSICTiiF0qmNTYg065rAocxF3UUB4CwEIQAACEIAABFwmgLhz2XvYnmcC+fLlMzn95LlzGkIgRgKcVIwRIM1jJsAajBlhSjtA3KUUP4OngsC5c+eM/0c2+N/7r1NhH2NCgP1OrIFUE2ANptoDsY2PuIuNH60hAAEIQAACEIBAoAgg7gLlDoxJBQH+h5oK6ox5MQKsyYvR4bNkEGANJoNy4sbIdz4FdS6n7nuMW2WmP3Z3TrfxOQQgAAEIQAACEIBAnAlcqg4jchdnB9AdBCCbd3XjAAAEHElEQVQAAQhAAAIQSCUBxF0q6TN2IAhwKiwQbsAIHwHWpA8GlykhwBpMCfa4DUpaNm4o6chVAnokSi52J7g6Pex2kABr0kGnhcxk1mCwHEpaNlj+wBoIQAACEIAABCCQVAKkZZOKm8GCSIBTYUH0SnrbxJpMb/8HYfaswSB4Ie82kJbNOztaQgACEIAABCAAgYQTIC2bcMQMAAEIQAACEIAABIJLgLRscH2DZUkiwKmwJIFmmFwTYE3mGhU3JogAazBBYJPULWnZJIFmmOAS4FRYcH2TrpaxJtPV88GZN2swOL6QJaRlg+UPrIEABCAAAQhAAAJJJUBaNqm4GSyIBDgVFkSvpLdNrMn09n8QZs8aDIIX8m4Dadm8s6MlBCAAAQhAAAIQSDgB0rIJR8wAEIAABCAAAQhAILgESMsG1zdYliQCnApLEmiGyTUB1mSuUXFjggiwBhMENkndkpZNEmiGCS4BToUF1zfpahlrMl09H5x5swaD4wtZQlo2WP7AGghAAAIQgAAEIJBUArmK3L204Guz88dfk2oYg0EAAhCAAAQgkBoC25a9b+q26ZmawRk1E4HalUqawR3qZ6rPriJX4i67xtRDAAIQgAAEIAABCASLAAcqguUPrIEABCAAAQhAAAIxEUDcxYSPxmEgwKmwMHgxXHNgTYbLny7OhjXootcu2Exa9gILrtKUAKfC0tTxAZ42azLAzkkT01iDbjuayJ3b/sN6CEAAAhCAAAQgEEEg//nvj3s+ooY3EEgzAvofarNmzdJs1kw3yARYk0H2TnrYxhp028+kZd32H9ZDAAIQgAAEIACBCAKkZSNw8AYCEIAABCAAAQi4TQBx57b/sD4OBDgVFgeIdBFXAqzJuOKkszwQYA3mAVqAmpCWDZAzMCU1BDgVlhrujJo9AdZk9mz4JDkEWIPJ4ZyoUYjcJYos/UIAAhCAAAQgAIEUEOC0bAqgM2SwCHAqLFj+wBpjWJOsglQTYA2m2gOxjU9aNjZ+tIYABCAAAQhAAAKBIkBaNlDuwBgIQAACEIAABCAQGwHEXWz8aB0CApwKC4ETQzYF1mTIHOrgdFiDDjrNZzJpWR8MLtOTAKfC0tPvQZ41azLI3kkP21iDbvuZyJ3b/sN6CEAAAhCAAAQgEEGA07IROHiTjgQ4FZaOXg/2nFmTwfZPOljHGnTby6Rl3fYf1kMAAhCAAAQgAIEIAqRlI3DwBgIQgAAEIAABCLhNAHHntv+wHgIQgAAEIAABCEQQQNxF4OANBCAAAQhAAAIQcJsA4s5t/2E9BCAAAQhAAAIQiCCAuIvAwRsIQAACEIAABCDgNgHEndv+w3oIQAACEIAABCAQQQBxF4GDNxCAAAQgAAEIQMBtAog7t/2H9RCAAAQgAAEIQCCCwP8AqmUvL7K7m58AAAAASUVORK5CYII=;" parent="WIyWlLk6GJQsqaUBKTNV-1" vertex="1">
          <mxGeometry x="70" y="980" width="631" height="436" as="geometry" />
        </mxCell>
      </root>
    </mxGraphModel>
  </diagram>
</mxfile>
